<?xml version="1.0" encoding="utf-8"?>
<svg xmlns="http://www.w3.org/2000/svg" fill="none" height="133" width="340">
  <rect fill="#F4F4F4" height="133" rx="9" width="340"/>
  <path d="M43.197 98.39c10.893-4.665 22.557-9.875 32.97-15.53.17-.948.282-1.808.412-2.693a.811.811 0 0 0 .423-1.055c-.048-.109-7.417-16.476-7.177-15.908 6.234-4.24 17.554-12.245 23.15-16a2.89 2.89 0 0 0 .191-.147c2.611-2.777-.31-9.072-5.29-7.822a5.11 5.11 0 0 0-.486.224c-6.367 4.27-14.844 10.058-21.8 14.75.05.11-.516-1.455-7.543-17.138-.184-.408-.802-.624-1.181-.495a203.343 203.343 0 0 0-6.148 2.221c-.63-.594-1.434-.967-2.232-.82-.552.098-1.05.423-1.581.65-1.37.567-1.889.003-2.449-1.365-.565-1.52-.302-1.977-1.993-1.43-4.14 1.32-8.879 4.054-9.046 4.54-.26.715.347 1.57.531 2.21.702 2.28-.69 2.33-1.95 3.087-.775.475-1.328 1.33-1.55 2.28a148.184 148.184 0 0 0-5.078 2.845.796.796 0 0 0-.616 1.123l.197.436-1.092 4.514c6.64 14.395 12.698 27.13 19.337 41.524h.002Zm-4.546-59.145c.433-.423 1.094-.412 1.462.032.369.434.325 1.127-.108 1.539-.444.422-1.105.422-1.463-.022-.379-.433-.325-1.127.109-1.55Zm25.797 24.082c-.136-.516-1.642-2.281-2.112-2.518.35-.856.685-1.683.948-2.336.371.103.732.223.978.431.197.165.291.43.237.54a.812.812 0 0 0 .554 1.151 2.055 2.055 0 0 1 1.572 2.38v.009c-.406.066-1.356.219-2.178.343h.001Zm3.807-1.022c-.087-1.065-.55-1.963-1.44-2.634C71.97 56.486 86.431 46.997 87.738 45.7a7.69 7.69 0 0 1 .778 2.577c-6.125 4.21-14.952 10.436-20.261 14.029Zm17.05-19.484a8.718 8.718 0 0 1 1.6 1.56c-.644.233-7.435 5.566-21.04 13.968-.353-.65-.91-1.016-1.622-1.273 6.216-4.178 14.597-9.894 21.062-14.255ZM64.209 55.132l.002.005-1.665 1.12a.928.928 0 0 0-.345.522c-.332.92-2.784 6.868-3.158 7.714a.812.812 0 0 0 .84 1.135c.723-.085 6.674-.953 8.098-1.232.152-.03.209-.076.479-.27.819 1.79.343.754 6.712 14.861-10.051 4.548-19.868 9.354-30.078 13.797-5.221-11.59-13.361-29.329-18.529-40.802 1.275-.746 2.57-1.474 3.88-2.189.151.68.453 1.342.881 1.77 1.138 1.115 2.85-.098 4.03-.607 4.048-1.742 7.865-3.667 15.091-7.204.726-.358 1.495-.759 1.863-1.506.338-.685.01-1.465-.451-2.143a203.993 203.993 0 0 1 4.964-1.788c1.95 4.35 5.9 13.127 7.385 16.817Z" fill="#000"/>
  <path d="M47.84 63.959c-.78-2.434-2.124-5.222-3.308-7.68-.126-.174-.324-1.245-1.416-.869l-8.31 2.846c-.563.193-.68.871-.415 1.332 1.292 2.214 2.541 5.05 3.735 8.482a.81.81 0 0 0 1.066.439l8.078-3.39c.348-.146.724-.675.57-1.16Zm-8.483 2.72c-1.001-2.782-2.058-5.19-3.151-7.184l6.928-2.373c1.046 2.171 2.204 4.59 2.956 6.73l-6.733 2.826Zm12.455 6.439c-.108-.108-.349-1.244-1.431-.832l-7.92 2.947c-.544.204-.663.878-.378 1.337 1.295 2.09 2.567 4.785 3.802 8.054a.811.811 0 0 0 1.078.415l7.682-3.465c.35-.158.7-.693.535-1.17-.812-2.316-2.17-4.956-3.37-7.286h.002Zm-4.733 10.085c-1.025-2.624-2.092-4.894-3.184-6.77l6.543-2.435c1.051 2.044 2.215 4.32 2.988 6.343l-6.347 2.862Zm.667-29.29a.813.813 0 0 0 .603 1.51l9.465-3.77a.812.812 0 1 0-.6-1.51l-9.468 3.77Zm3.443 6.094c.68-.312 2.91-1.146 3.644-1.484a.813.813 0 1 0-.68-1.477c-.682.314-2.912 1.149-3.644 1.486a.813.813 0 0 0 .68 1.475Zm4.038 12.463a.812.812 0 0 0 1.05.462c2.452-.954 5.23-2.201 7.328-3.045a.813.813 0 0 0-.608-1.508c-2.141.862-4.898 2.1-7.308 3.04a.813.813 0 0 0-.462 1.05Zm7.063.788-3.714 1.322a.813.813 0 0 0 .542 1.534l3.713-1.323a.812.812 0 1 0-.542-1.533h.001Z" fill="#000"/>
  <path d="M47.15 76.939c-.373.411-.334 1.294-.163 1.765.377 1.043 1.984 2.427 2.985 1.24.412-.487.507-1.205.284-1.803-.519-1.395-2.56-1.807-3.107-1.203Z" fill="#000"/>
</svg>