<svg xmlns="http://www.w3.org/2000/svg" width="340" height="133" fill="none"><rect width="340" height="133" fill="#F4F4F4" rx="9"/><path fill="#000" d="M70.895 96.04c-3.517 3.2-8.452 3.506-12.935 2.068-7.204-2.312-18.262-11.348-24.82-24.173-1.71-3.344-3.664-7.247-4.248-11.141-1.152-3.683-.805-7.052 2.644-10.494 1.755-1.795 4.563-4.828 6.945-4.01 3.255 1.124 4.968 3.743 6.875 6.57.792 1.172 1.369 2.284 1.764 3.402 1.442 4.076-.294 5.565-2.534 6.963-1.327.829-2.803 1.2-4.07 1.457a.475.475 0 0 0-.358.61c2.546 8.372 9.212 15.497 17.398 18.594a.47.47 0 0 0 .634-.328c.494-2.082 1.213-4.226 3.105-5.81 2.1-1.752 5.466-1.711 8.2 1.147 1.902 1.99 5.056 5.296 5.387 8.005.319 2.62-1.624 5.439-3.987 7.14ZM45.706 58.762c-.352-.995-.873-1.996-1.593-3.062-1.725-2.558-3.285-5.013-6.121-5.992-1.025-.349-2.637.95-3.873 2.128 3.104 3.053 6.651 7.355 9.875 11.986 1.825-1.157 2.775-2.054 1.712-5.06Zm12.952 28.425a1.975 1.975 0 0 1-1.632.102c-8.612-3.258-15.624-10.753-18.303-19.562a1.996 1.996 0 0 1 .193-1.596c.696-1.163 1.612-.758 3.733-1.615-3.147-4.502-6.587-8.667-9.593-11.622l-.02.022c-.487.555-2.864 2.568-3.207 5.63-.26 2.335.75 4.695 1.641 6.778 1.634 3.819 3.322 7.767 5.496 11.357 5.661 9.352 14.9 16.513 25.346 19.646 1.307.393 2.547.48 3.686.26 1.74-.338 3.38-1.177 4.791-2.4-3.547-4.974-6.843-8.686-10.065-11.349-1.259 2.369-.714 3.631-2.066 4.35Zm14.736 1.895c-.273-2.233-3.398-5.49-4.983-7.15-.939-.982-1.875-1.532-3.03-1.782-1.528-.333-2.778.241-3.81 1.44 3.313 2.716 6.684 6.49 10.291 11.521.935-1.152 1.694-2.694 1.532-4.03Z"/><path fill="#000" d="M85.217 70.689C82.09 72.7 78.352 73.203 74.66 72.92c-1.834-.14-3.135-.63-5.222-1.002-.643-.115-1.194-.38-1.799-.467-1.398 1.72-2.214 2.618-4.477 2.877a1.638 1.638 0 0 1-2.412-1.02 38.853 38.853 0 0 1-1.022-5.938c-5.32-3.218-8.008-9.6-6.542-15.68.286-.675.718-6.71 6.86-10.468a14.29 14.29 0 0 1 10.879-1.715l10.081 2.43a14.3 14.3 0 0 1 7.887 5.061c6.788 7.795 3.845 18.847-3.677 23.69ZM70.575 40.967a12.797 12.797 0 0 0-9.746 1.535c-5.49 3.359-5.915 8.9-6.183 9.54-1.342 5.563 1.191 11.417 6.16 14.234.745.42.074 1.504 1.398 6.66.033.13.19.154.26.06 3.678-4.742 3.677-4.914 4.276-4.767l7.494 1.807c6.915 1.668 13.886-2.605 15.554-9.521l.375-1.555c1.667-6.916-2.597-13.898-9.507-15.564l-10.082-2.43Z"/><path fill="#000" d="M84.492 52.804a.751.751 0 0 1-.905.553 95.252 95.252 0 0 1-17.654-6.14.75.75 0 0 1 .629-1.362 93.714 93.714 0 0 0 17.377 6.043c.402.098.65.502.553.906Zm-1.652 7.558a.75.75 0 1 1-.479 1.422c-8.077-2.714-13.392-3.748-19.76-8.198a.75.75 0 0 1 .86-1.23c6.168 4.31 11.125 5.236 19.379 8.006Zm-13.95 1.819 4.207 1.7c.906.367.372 1.765-.563 1.391l-4.207-1.7a.75.75 0 0 1 .563-1.392ZM52.337 41.92a.75.75 0 0 1 .532.917l-1.507 5.665a.75.75 0 1 1-1.449-.385l1.507-5.665c.105-.4.514-.64.917-.532Zm-6.087-3.192a35.818 35.818 0 0 0 1.796 7.674.75.75 0 1 1-1.414.5 37.314 37.314 0 0 1-1.872-7.994.751.751 0 0 1 .655-.835c.42-.04.785.244.835.655Zm-7.284 3.396 5.34 4.658a.75.75 0 0 1-.986 1.13l-5.34-4.657a.751.751 0 0 1 .986-1.131ZM39.5 87.5c-6-5-9.5-18.167-10.5-24.5 11.5 40 47 32 39 35-12.718 4.769-21.355-4.546-28.5-10.5Z"/><path fill="#000" d="M82 74c-6.4 1.6-12.333-.667-14.5-2v-1.5C71.833 72 82.2 72.8 89 64c6.8-8.8-1.833-18-7-21.5C92.8 45.7 94.833 56.167 94.5 61 93 64.667 88.4 72.4 82 74Z"/></svg>