<svg xmlns="http://www.w3.org/2000/svg" width="530" height="512" fill="none">
  <g clip-path="url(#a)">
    <g clip-path="url(#b)">
      <path fill="#F2B0AF" d="M70 132a91 91 0 0 1 91-91h200a91 91 0 0 1 91 91v194a91 91 0 0 1-91 91H161a91 91 0 0 1-91-91V132Z"/>
      <path fill="#FF6A35" d="M24 146.2V14h132.2C156.2 87 97 146.2 24 146.2Zm0 146.1V160h132.2c0 73-59.2 132.3-132.2 132.3ZM24 441V308.8h132.2C156.2 381.8 97 441 24 441Zm302.5-294.8V14h132.2c0 73-59.2 132.2-132.2 132.2Zm0 146.1V160h132.2c0 73-59.2 132.3-132.2 132.3Zm0 148.7V308.8h132.2c0 73-59.2 132.2-132.2 132.2Z"/>
    </g>
    <g filter="url(#c)">
      <rect width="479" height="105" x="22" y="382" fill="#fff" rx="24"/>
      <path fill="#141414" d="m56.3 427-.8-2.5h-5.6L49 427h-3l5-14h3.4l4.9 14h-3Zm-5.5-5.1h3.8l-2-5.7-1.8 5.7Zm11-6.1a1.6 1.6 0 0 1-1.6-1.6c0-.4.2-.8.5-1.1a1.5 1.5 0 0 1 2.2 0 1.5 1.5 0 0 1 0 2.2c-.3.3-.6.5-1 .5ZM60.5 427v-10h2.6v10h-2.6Zm7.3-7.2c0 .3.2.5.5.7l1.3.4 1.5.5c.5.2 1 .5 1.3 1 .4.4.5 1 .5 1.7 0 1-.3 1.8-1.1 2.4-.8.5-1.7.8-2.9.8-2 0-3.4-.8-4.2-2.4l2.3-1.3c.3 1 1 1.3 2 1.3.8 0 1.3-.2 1.3-.8 0-.3-.2-.5-.5-.7l-1.3-.4-1.5-.5c-.5-.2-1-.5-1.3-1-.4-.4-.6-1-.6-1.6 0-1 .4-1.8 1.1-2.3.8-.6 1.7-.9 2.7-.9.9 0 1.6.2 2.3.6a4 4 0 0 1 1.5 1.5l-2.2 1.2c-.3-.6-.8-1-1.6-1-.3 0-.6 0-.8.2l-.3.6Zm12.4-3c1 0 2 .3 2.7 1 .7.8 1 1.8 1 3v6.2h-2.5v-5.8c0-.7-.2-1.2-.6-1.5a2 2 0 0 0-1.4-.6c-.7 0-1.2.2-1.6.6-.4.5-.6 1-.6 1.9v5.4h-2.6v-14h2.6v5.1c.6-1 1.6-1.4 3-1.4Zm17 .2h2.8l-3.2 10h-2.5l-1.8-6-1.9 6h-2.4L85 417h2.7l1.7 6.1 1.9-6.1h2.4l1.8 6.2 1.7-6.2Zm11.4 0h2.5v10h-2.5v-1.2a4 4 0 0 1-3.3 1.5c-1.3 0-2.5-.5-3.4-1.5-1-1-1.5-2.3-1.5-3.8s.5-2.7 1.5-3.7 2-1.6 3.4-1.6a4 4 0 0 1 3.3 1.5V417Zm-4.8 7c.5.6 1.2.8 2 .8s1.4-.2 2-.8c.5-.5.8-1.2.8-2s-.3-1.5-.8-2c-.6-.6-1.2-.8-2-.8s-1.5.2-2 .8c-.5.5-.8 1.2-.8 2s.3 1.5.8 2Zm12.3-5.3c.2-.6.6-1.1 1.1-1.4.6-.3 1.2-.5 2-.5v2.9a3 3 0 0 0-2.2.5c-.6.4-1 1-1 2v4.8h-2.5v-10h2.6v1.7Zm11.3-1.7h2.7l-3.6 10a6.5 6.5 0 0 1-2.1 3.1c-.9.7-2 1-3.2.9v-2.4c.7 0 1.2-.1 1.6-.4a3 3 0 0 0 1-1.5l-4-9.7h2.7l2.6 6.7 2.3-6.7Zm11.2 0h2.5v10h-2.5v-1.2a4 4 0 0 1-3.3 1.5c-1.3 0-2.5-.5-3.5-1.5-.9-1-1.4-2.3-1.4-3.8s.5-2.7 1.4-3.7a5 5 0 0 1 3.5-1.6 4 4 0 0 1 3.3 1.5V417Zm-4.8 7c.5.6 1.2.8 2 .8s1.4-.2 2-.8c.5-.5.8-1.2.8-2s-.3-1.5-.8-2c-.6-.6-1.2-.8-2-.8s-1.5.2-2 .8c-.5.5-.8 1.2-.8 2s.3 1.5.8 2Zm19.5 3.2a5.1 5.1 0 0 1-5.2-5.2 5 5 0 0 1 1.5-3.7 5 5 0 0 1 3.7-1.5c1 0 2 .2 2.7.7.8.4 1.4 1 1.7 1.9l-1 .6a3 3 0 0 0-1.4-1.4c-.5-.4-1.2-.6-2-.6-1 0-2 .4-2.8 1.2a4 4 0 0 0-1 2.8 3.9 3.9 0 0 0 3.8 4c.8 0 1.5-.2 2-.6.6-.3 1.1-.8 1.4-1.4l1.1.6a5 5 0 0 1-1.8 2 6 6 0 0 1-2.7.6Zm7.7-8.5a3.3 3.3 0 0 1 3.2-1.9v1.3c-.9 0-1.7.3-2.3.8-.6.6-.9 1.4-.9 2.5v5.6h-1.3v-10h1.3v1.7Zm9-2c1.5 0 2.7.6 3.6 1.6a5.4 5.4 0 0 1 1.3 4.4h-8.7c.1 1 .5 1.8 1.2 2.4.8.6 1.7.9 2.7.9a4 4 0 0 0 2-.5 3 3 0 0 0 1.3-1.2l1.1.6c-.4.7-1 1.3-1.8 1.7-.7.4-1.6.6-2.6.6-1.5 0-2.8-.5-3.8-1.4a5 5 0 0 1-1.5-3.8 5 5 0 0 1 1.5-3.7 5 5 0 0 1 3.7-1.5Zm0 1.3a4 4 0 0 0-2.6 1c-.7.6-1.1 1.4-1.2 2.4h7.4a3.5 3.5 0 0 0-3.6-3.3Zm15.7-1h1.3v10h-1.3v-2a4.5 4.5 0 0 1-4 2.2 5 5 0 0 1-3.7-1.5 5 5 0 0 1-1.5-3.7 5 5 0 0 1 1.5-3.7 5 5 0 0 1 3.6-1.5c1.8 0 3.2.7 4 2.2v-2Zm-6.8 7.8c.8.8 1.7 1.2 2.8 1.2 1.2 0 2-.4 2.8-1.2.8-.8 1.2-1.7 1.2-2.8 0-1.1-.4-2-1.2-2.8a3.8 3.8 0 0 0-2.8-1.2c-1 0-2 .4-2.8 1.2a4 4 0 0 0-1 2.8c0 1.1.3 2 1 2.8Zm16.2-6.5h-2.9v6c0 .6.1 1 .3 1.2.3.2.6.4 1 .4h1.6v1.1c-1.4.2-2.5.1-3.2-.3-.7-.4-1-1.2-1-2.4v-6h-2.1V417h2.1v-2.4l1.3-.4v2.8h2.9v1.3Zm6.2-1.5c1.5 0 2.7.5 3.6 1.5a5.4 5.4 0 0 1 1.3 4.4h-8.7c0 1 .5 1.8 1.2 2.4.8.6 1.7.9 2.7.9a4 4 0 0 0 2-.5 3 3 0 0 0 1.3-1.2l1.1.6c-.4.7-1 1.3-1.8 1.7-.7.4-1.6.6-2.6.6-1.6 0-2.8-.5-3.8-1.4a5 5 0 0 1-1.5-3.8 5 5 0 0 1 1.5-3.7 5 5 0 0 1 3.7-1.5Zm0 1.2a4 4 0 0 0-2.6 1c-.7.6-1.1 1.4-1.2 2.4h7.4a3.5 3.5 0 0 0-3.6-3.3Zm15.7-5h1.3v14H217v-2a4.5 4.5 0 0 1-4 2.2 5 5 0 0 1-3.7-1.5 5 5 0 0 1-1.5-3.7 5 5 0 0 1 1.5-3.7 5 5 0 0 1 3.6-1.5c1.8 0 3.2.7 4 2.2v-6Zm-6.8 11.8c.8.8 1.7 1.2 2.8 1.2 1.1 0 2-.4 2.8-1.2.8-.8 1.2-1.7 1.2-2.8 0-1.1-.4-2-1.2-2.8a3.8 3.8 0 0 0-2.8-1.2c-1 0-2 .4-2.8 1.2a4.1 4.1 0 0 0 0 5.6Zm24.5-7.8h1.3v10h-1.3v-2a4.5 4.5 0 0 1-4 2.2 5 5 0 0 1-3.7-1.5 5 5 0 0 1-1.5-3.7 5 5 0 0 1 1.5-3.7 5 5 0 0 1 3.7-1.5c1.7 0 3 .7 4 2.2v-2Zm-6.7 7.8c.7.8 1.6 1.2 2.8 1.2 1 0 2-.4 2.8-1.2a4 4 0 0 0 1-2.8 4 4 0 0 0-1-2.8 3.8 3.8 0 0 0-2.8-1.2c-1.2 0-2 .4-2.8 1.2-.8.8-1.2 1.7-1.2 2.8 0 1.1.4 2 1.2 2.8Zm16.8-5.2c0 .5.2.8.6 1.1.4.3 1 .5 1.5.6l1.7.5c.6.2 1 .5 1.5 1 .4.3.6.9.6 1.6 0 .8-.4 1.5-1 2a4 4 0 0 1-2.6.8c-1 0-1.8-.2-2.5-.6-.7-.4-1.1-1-1.4-1.7l1.1-.6c.2.5.5 1 1 1.2a3.5 3.5 0 0 0 3.4.1c.4-.3.7-.7.7-1.2s-.2-.9-.6-1.1a4 4 0 0 0-1.5-.6 43 43 0 0 1-1.7-.5c-.6-.2-1-.5-1.5-1-.4-.3-.6-.9-.6-1.6 0-.8.3-1.5 1-2 .6-.6 1.5-.8 2.4-.8a4 4 0 0 1 2.2.5c.6.4 1 .9 1.3 1.5l-1 .6c-.4-.9-1.2-1.4-2.5-1.4-.5 0-1 .2-1.4.5-.4.2-.7.6-.7 1.1Zm9.3-5a1 1 0 0 1-.6.3 1 1 0 0 1-.7-.3 1 1 0 0 1-.3-.7c0-.2 0-.5.3-.7l.7-.2c.2 0 .4 0 .6.2.2.2.3.5.3.7 0 .3 0 .5-.3.7Zm-1.3 12.4v-10h1.3v10h-1.3Zm12.7-14h1.3v14h-1.3v-2a4.5 4.5 0 0 1-4 2.2 5 5 0 0 1-3.7-1.5 5 5 0 0 1-1.5-3.7 5 5 0 0 1 1.5-3.7 5 5 0 0 1 3.7-1.5c1.7 0 3 .7 4 2.2v-6Zm-6.7 11.8c.7.8 1.7 1.2 2.8 1.2 1 0 2-.4 2.8-1.2a4.1 4.1 0 0 0 0-5.6 3.8 3.8 0 0 0-2.8-1.2c-1.1 0-2 .4-2.8 1.2-.8.8-1.2 1.7-1.2 2.8 0 1.1.4 2 1.2 2.8Zm15.4-8c1.5 0 2.7.5 3.6 1.5a5.4 5.4 0 0 1 1.4 4.4h-8.8c.1 1 .5 1.8 1.3 2.4a4 4 0 0 0 2.7.9 4 4 0 0 0 2-.5c.5-.3 1-.7 1.2-1.2l1.1.6c-.4.7-1 1.3-1.8 1.7-.7.4-1.6.6-2.6.6-1.5 0-2.8-.5-3.8-1.4a5 5 0 0 1-1.5-3.8 5 5 0 0 1 1.5-3.7 5 5 0 0 1 3.7-1.5Zm0 1.2a4 4 0 0 0-2.6 1c-.7.6-1 1.4-1.2 2.4h7.4c0-1-.5-1.9-1.2-2.5-.7-.6-1.4-.9-2.4-.9Zm16.8-1.2c1.2 0 2.2.3 2.8 1a4 4 0 0 1 1.1 3v6.2h-1.3v-6.1c0-1-.3-1.6-.7-2.1-.5-.5-1.2-.8-2-.8a3 3 0 0 0-2.4 1c-.6.6-.9 1.5-.9 2.8v5.2h-1.3v-14h1.3v5.6a3.7 3.7 0 0 1 3.4-1.8Zm13.5.2h1.3v10h-1.3v-1.6a3.7 3.7 0 0 1-3.4 1.8c-1.2 0-2.1-.3-2.8-1-.7-.8-1-1.8-1-3V417h1.2v6.1c0 1 .3 1.6.7 2.1.5.5 1.2.8 2 .8a3 3 0 0 0 2.4-1c.6-.6.9-1.5.9-2.8V417Zm5.2 2.6c0 .5.2.8.6 1.1.4.3.8.5 1.4.6l1.7.5c.6.2 1 .5 1.5 1 .4.3.6.9.6 1.6 0 .8-.3 1.5-1 2a4 4 0 0 1-2.6.8c-1 0-1.8-.2-2.5-.6-.7-.4-1.1-1-1.4-1.7l1.1-.6c.2.5.6 1 1 1.2a3.5 3.5 0 0 0 3.4.1c.5-.3.7-.7.7-1.2s-.2-.9-.6-1.1a4 4 0 0 0-1.5-.6l-1.7-.5c-.6-.2-1-.5-1.5-1-.4-.3-.6-.9-.6-1.6 0-.8.4-1.5 1-2 .6-.6 1.5-.8 2.5-.8a4 4 0 0 1 2 .5c.7.4 1.2.9 1.5 1.5l-1.1.6c-.4-.9-1.2-1.4-2.4-1.4-.6 0-1.1.2-1.5.5-.4.2-.6.6-.6 1.1Zm12.9-1.3h-2.9v6c0 .6.1 1 .3 1.2.3.2.6.4 1 .4h1.6v1.1c-1.4.2-2.5.1-3.2-.3-.7-.4-1-1.2-1-2.4v-6h-2.1V417h2.1v-2.4l1.3-.4v2.8h2.9v1.3Zm2.2 8.7v-14.6h1.3V427h-1.3Zm8.7-10.2c1.5 0 2.7.5 3.6 1.5a5.4 5.4 0 0 1 1.4 4.4h-8.8c.1 1 .5 1.8 1.3 2.4a4 4 0 0 0 2.7.9 4 4 0 0 0 2-.5c.5-.3.9-.7 1.2-1.2l1.1.6c-.4.7-1 1.3-1.8 1.7-.7.4-1.6.6-2.6.6-1.5 0-2.8-.5-3.8-1.4-1-1-1.5-2.3-1.5-3.8s.5-2.7 1.5-3.7a5 5 0 0 1 3.7-1.5Zm0 1.2a4 4 0 0 0-2.6 1c-.7.6-1 1.4-1.2 2.4h7.4c0-1-.5-1.9-1.2-2.5-.7-.6-1.4-.9-2.4-.9ZM52.1 444.8c1.2 0 2.1.3 2.8 1 .7.8 1.1 1.8 1.1 3v6.2h-1.3v-6.1c0-1-.3-1.6-.7-2.1-.5-.5-1.2-.8-2-.8a3 3 0 0 0-2.4 1c-.6.6-.9 1.5-.9 2.8v5.2h-1.3v-14h1.3v5.6a3.7 3.7 0 0 1 3.4-1.8Zm11 0c1.6 0 2.7.5 3.7 1.5a5.4 5.4 0 0 1 1.3 4.4h-8.8c.1 1 .6 1.8 1.3 2.4a4 4 0 0 0 2.7.9 4 4 0 0 0 2-.5c.5-.3 1-.7 1.2-1.2l1.2.6c-.5.7-1 1.3-1.8 1.7-.8.4-1.7.6-2.6.6-1.6 0-2.9-.5-3.9-1.4A5 5 0 0 1 58 450c0-1.5.4-2.7 1.4-3.7a5 5 0 0 1 3.8-1.5Zm0 1.2c-1 0-1.8.4-2.5 1s-1.2 1.4-1.3 2.4h7.5c-.2-1-.6-1.9-1.2-2.5-.7-.6-1.5-.9-2.4-.9Zm7.1 9v-14.6h1.4V455h-1.4Zm9.5-10.2a5 5 0 0 1 3.7 1.5 5 5 0 0 1 1.5 3.7 5 5 0 0 1-1.5 3.7 5 5 0 0 1-3.7 1.5c-1.8 0-3.1-.7-4-2.2v6h-1.3v-14h1.3v2a4.3 4.3 0 0 1 4-2.2Zm-2.9 8c.8.8 1.7 1.2 2.8 1.2 1.1 0 2-.4 2.8-1.2.8-.8 1.2-1.7 1.2-2.8 0-1.1-.4-2-1.2-2.8a3.8 3.8 0 0 0-2.8-1.2c-1 0-2 .4-2.8 1.2a4.1 4.1 0 0 0 0 5.6Zm11.6-10.2a1 1 0 0 1-.7.3 1 1 0 0 1-.7-.3 1 1 0 0 1-.2-.7c0-.2 0-.5.2-.7l.7-.2c.3 0 .5 0 .7.2.2.2.3.5.3.7 0 .3-.1.5-.3.7ZM87.1 455v-10h1.3v10H87Zm8.8-10.2c1.2 0 2.1.3 2.8 1 .7.8 1 1.8 1 3v6.2h-1.2v-6.1c0-1-.3-1.6-.8-2.1-.4-.5-1-.8-2-.8s-1.7.3-2.3 1c-.6.6-.9 1.5-.9 2.8v5.2h-1.3v-10h1.3v1.6a3.7 3.7 0 0 1 3.4-1.8Zm15 .2h1.4v9.6c0 1.4-.5 2.6-1.5 3.4-1 .8-2.2 1.2-3.6 1.2-2.3 0-3.9-.8-4.7-2.4l1.2-.7c.6 1.3 1.8 1.9 3.5 1.9 1.2 0 2-.3 2.7-1a3 3 0 0 0 1-2.4V453a4.5 4.5 0 0 1-4 2.2 5 5 0 0 1-3.7-1.5 5 5 0 0 1-1.5-3.7 5 5 0 0 1 1.5-3.7 5 5 0 0 1 3.7-1.5c1.8 0 3.1.7 4 2.2v-2Zm-6.7 7.8c.8.8 1.7 1.2 2.8 1.2 1.1 0 2-.4 2.8-1.2.8-.8 1.1-1.7 1.1-2.8 0-1.1-.3-2-1.1-2.8a3.8 3.8 0 0 0-2.8-1.2c-1.1 0-2 .4-2.8 1.2-.8.8-1.1 1.7-1.1 2.8 0 1.1.3 2 1.1 2.8Zm20.5 2.4a5.1 5.1 0 0 1-5.2-5.2 5 5 0 0 1 1.5-3.7 5 5 0 0 1 3.7-1.5c1 0 1.9.2 2.7.7.8.4 1.3 1 1.7 1.9l-1 .6a3 3 0 0 0-1.4-1.4c-.6-.4-1.2-.6-2-.6-1 0-2 .4-2.8 1.2-.7.8-1.1 1.7-1.1 2.8a3.9 3.9 0 0 0 4 4 3.9 3.9 0 0 0 3.3-2l1.1.6a5 5 0 0 1-1.8 2 6 6 0 0 1-2.7.6Zm7.7-8.5c.6-1.3 1.7-1.9 3.2-1.9v1.3c-1 0-1.7.3-2.3.8-.6.6-.9 1.4-.9 2.5v5.6h-1.3v-10h1.3v1.7Zm9-2c1.5 0 2.7.6 3.6 1.6a5.4 5.4 0 0 1 1.3 4.4h-8.8a4 4 0 0 0 1.3 2.4 4 4 0 0 0 2.7.9 4 4 0 0 0 2-.5c.5-.3 1-.7 1.2-1.2l1.2.6c-.4.7-1 1.3-1.8 1.7-.8.4-1.6.6-2.6.6-1.6 0-2.9-.5-3.8-1.4a5 5 0 0 1-1.5-3.8c0-1.5.5-2.7 1.4-3.7a5 5 0 0 1 3.8-1.5Zm0 1.3c-1 0-2 .4-2.6 1a4 4 0 0 0-1.3 2.4h7.5a3.5 3.5 0 0 0-3.6-3.3Zm15.7-1h1.3v10H157v-2a4.5 4.5 0 0 1-4 2.2 5 5 0 0 1-3.7-1.5 5 5 0 0 1-1.5-3.7 5 5 0 0 1 1.5-3.7 5 5 0 0 1 3.6-1.5c1.8 0 3.1.7 4 2.2v-2Zm-6.8 7.8c.8.8 1.7 1.2 2.8 1.2 1.1 0 2-.4 2.8-1.2.8-.8 1.2-1.7 1.2-2.8 0-1.1-.4-2-1.2-2.8a3.8 3.8 0 0 0-2.8-1.2c-1 0-2 .4-2.8 1.2a4.1 4.1 0 0 0 0 5.6Zm16.2-6.5h-3v6c0 .6.2 1 .4 1.2.2.2.5.4 1 .4h1.6v1.1c-1.4.2-2.5.1-3.2-.3-.7-.4-1-1.2-1-2.4v-6h-2.1V445h2v-2.4l1.4-.4v2.8h2.9v1.3Zm10 7.4a5 5 0 0 1-3.8 1.5 5.2 5.2 0 0 1-5.2-5.2 5 5 0 0 1 1.5-3.7c1-1 2.3-1.5 3.7-1.5a5 5 0 0 1 3.7 1.5 5 5 0 0 1 1.6 3.7 5 5 0 0 1-1.6 3.7Zm-6.6-.9c.8.8 1.7 1.2 2.8 1.2 1.1 0 2-.4 2.8-1.2.8-.8 1.2-1.7 1.2-2.8 0-1.1-.4-2-1.2-2.8a3.8 3.8 0 0 0-2.8-1.2c-1 0-2 .4-2.8 1.2a4.1 4.1 0 0 0 0 5.6Zm11.6-6.1c.6-1.3 1.7-1.9 3.2-1.9v1.3c-1 0-1.7.3-2.3.8-.6.6-.9 1.4-.9 2.5v5.6h-1.3v-10h1.3v1.7Zm5.6 1c0 .4.2.7.6 1 .4.3 1 .5 1.5.6l1.7.5c.6.2 1 .5 1.5 1 .4.3.6.9.6 1.6 0 .8-.4 1.5-1 2a4 4 0 0 1-2.6.8c-1 0-1.8-.2-2.5-.6-.7-.4-1.1-1-1.4-1.7l1.1-.6c.2.5.5 1 1 1.2.5.3 1 .5 1.8.5.6 0 1.2-.2 1.6-.4.4-.3.7-.7.7-1.2s-.2-.9-.6-1.1a4 4 0 0 0-1.5-.6 43 43 0 0 1-1.7-.5c-.6-.2-1-.5-1.5-1-.4-.3-.6-.9-.6-1.6 0-.8.3-1.5 1-2 .6-.6 1.4-.8 2.4-.8a4 4 0 0 1 2.2.5c.6.4 1 .9 1.3 1.5l-1 .6c-.5-.9-1.3-1.4-2.5-1.4-.5 0-1 .2-1.4.5-.5.2-.7.6-.7 1.1Zm18.4-3a5 5 0 0 1 3.7 1.6 5 5 0 0 1 1.5 3.7 5 5 0 0 1-1.5 3.7 5 5 0 0 1-3.7 1.5c-1.7 0-3-.7-4-2.2v2h-1.3v-14h1.3v6c1-1.5 2.3-2.2 4-2.2Zm-2.9 8.1c.8.8 1.7 1.2 2.8 1.2 1.1 0 2-.4 2.8-1.2.8-.8 1.2-1.7 1.2-2.8 0-1.1-.4-2-1.2-2.8a3.8 3.8 0 0 0-2.8-1.2c-1 0-2 .4-2.8 1.2a4.1 4.1 0 0 0 0 5.6ZM220 445h1.3v10H220v-1.6a3.7 3.7 0 0 1-3.3 1.8c-1.2 0-2.2-.3-3-1a5 5 0 0 1-1-3V445h1.4v6.1c0 1 .2 1.6.7 2.1.4.5 1.1.8 2 .8 1 0 1.7-.3 2.3-1 .6-.6 1-1.5 1-2.8V445Zm5.5-2.4a1 1 0 0 1-.7.3 1 1 0 0 1-.7-.3 1 1 0 0 1-.3-.7c0-.2.1-.5.3-.7l.7-.2c.3 0 .5 0 .7.2.2.2.3.5.3.7 0 .3-.1.5-.3.7ZM224 455v-10h1.4v10H224Zm4.2 0v-14.6h1.3V455h-1.3Zm12.7-14h1.3v14h-1.3v-2a4.5 4.5 0 0 1-4 2.2 5 5 0 0 1-3.7-1.5 5 5 0 0 1-1.5-3.7 5 5 0 0 1 1.5-3.7 5 5 0 0 1 3.6-1.5c1.8 0 3.2.7 4 2.2v-6Zm-6.8 11.8c.8.8 1.7 1.2 2.8 1.2 1.1 0 2-.4 2.8-1.2.8-.8 1.2-1.7 1.2-2.8 0-1.1-.4-2-1.2-2.8a3.8 3.8 0 0 0-2.8-1.2c-1 0-2 .4-2.8 1.2a4.1 4.1 0 0 0 0 5.6Zm24.5-7.8h1.3v10h-1.3v-2a4.5 4.5 0 0 1-4 2.2 5 5 0 0 1-3.7-1.5 5 5 0 0 1-1.5-3.7 5 5 0 0 1 1.5-3.7 5 5 0 0 1 3.7-1.5c1.7 0 3 .7 4 2.2v-2Zm-6.7 7.8c.7.8 1.7 1.2 2.8 1.2 1 0 2-.4 2.8-1.2a4.1 4.1 0 0 0 0-5.6 3.8 3.8 0 0 0-2.8-1.2c-1.1 0-2 .4-2.8 1.2-.8.8-1.2 1.7-1.2 2.8 0 1.1.4 2 1.2 2.8Zm21.2-8a5 5 0 0 1 3.6 1.5 5 5 0 0 1 1.5 3.7 5 5 0 0 1-1.5 3.7 5 5 0 0 1-3.6 1.5c-1.8 0-3.1-.7-4-2.2v2h-1.4v-14h1.3v6c1-1.5 2.3-2.2 4-2.2Zm-3 8a4 4 0 0 0 5.7 0 4.1 4.1 0 0 0 0-5.6 3.8 3.8 0 0 0-2.8-1.2c-1.1 0-2 .4-2.8 1.2-.8.8-1.2 1.7-1.2 2.8 0 1.1.4 2 1.2 2.8Zm11.6-6.1a3.3 3.3 0 0 1 3.2-1.9v1.3c-.9 0-1.7.3-2.3.8-.6.6-.9 1.4-.9 2.5v5.6h-1.3v-10h1.3v1.7Zm13-1.7h1.3v10h-1.3v-2a4.5 4.5 0 0 1-4 2.2 5 5 0 0 1-3.7-1.5 5 5 0 0 1-1.5-3.7 5 5 0 0 1 1.5-3.7 5 5 0 0 1 3.7-1.5c1.7 0 3 .7 4 2.2v-2Zm-6.7 7.8c.7.8 1.7 1.2 2.8 1.2 1 0 2-.4 2.8-1.2a4.1 4.1 0 0 0 0-5.6 3.8 3.8 0 0 0-2.8-1.2c-1.1 0-2 .4-2.8 1.2-.8.8-1.2 1.7-1.2 2.8 0 1.1.4 2 1.2 2.8Zm15.5-8c1.2 0 2.2.3 2.9 1 .7.8 1 1.8 1 3v6.2h-1.3v-6.1c0-1-.2-1.6-.7-2.1-.5-.5-1.1-.8-2-.8a3 3 0 0 0-2.4 1c-.6.6-.9 1.5-.9 2.8v5.2h-1.3v-10h1.3v1.6a3.7 3.7 0 0 1 3.4-1.8Zm15-3.8h1.4v14h-1.3v-2a4.5 4.5 0 0 1-4 2.2 5 5 0 0 1-3.7-1.5 5 5 0 0 1-1.5-3.7 5 5 0 0 1 1.5-3.7 5 5 0 0 1 3.6-1.5c1.8 0 3.2.7 4 2.2v-6Zm-6.7 11.8c.8.8 1.7 1.2 2.8 1.2 1.1 0 2-.4 2.8-1.2.8-.8 1.2-1.7 1.2-2.8 0-1.1-.4-2-1.2-2.8a3.8 3.8 0 0 0-2.8-1.2c-1 0-2 .4-2.8 1.2a4.1 4.1 0 0 0 0 5.6Z"/>
      <rect width="120" height="38" x="365" y="415" fill="#DFE7F0" rx="12"/>
      <path fill="#2D64BC" d="M396 425.8h-16a2 2 0 0 0-2.1 2.2v12.8a2 2 0 0 0 2 2h3v4.4l6.5-4.3h6.7c1.1 0 2-1 2-2.1V428a2 2 0 0 0-.6-1.5 2 2 0 0 0-1.4-.7Zm15.4 3v2.1h-3v9.1h-2.2v-9h-3v-2.2h8.2ZM418 439a4 4 0 0 1-3 1.2c-1.1 0-2.1-.4-3-1.2a4.1 4.1 0 0 1-1.2-3 4 4 0 0 1 1.2-3 4 4 0 0 1 3-1.2 4 4 0 0 1 3 1.2 4 4 0 0 1 1.3 3 4 4 0 0 1-1.3 3Zm-4.5-1.4c.4.4 1 .6 1.5.6.7 0 1.2-.2 1.6-.6.4-.4.6-1 .6-1.6a2.1 2.1 0 0 0-2.2-2.2 2.1 2.1 0 0 0-2.1 2.2c0 .6.2 1.2.6 1.6Zm11.9-5.8c1 0 2 .4 2.7 1.2.8.8 1.2 1.8 1.2 3s-.4 2.2-1.2 3c-.7.8-1.6 1.2-2.7 1.2s-2-.4-2.6-1.1v4.1h-2V432h2v1a3 3 0 0 1 2.6-1.2Zm-2 5.8c.4.4 1 .7 1.6.7.6 0 1.2-.3 1.6-.7.4-.4.6-1 .6-1.6a2.1 2.1 0 0 0-2.2-2.3c-.6 0-1.2.3-1.6.7-.4.4-.6 1-.6 1.6 0 .7.2 1.2.6 1.6Zm14.2 2.4-3.7-11.2h2.4l2.7 8.6 2.7-8.6h2.4l-3.8 11.2h-2.7Zm13.4-1c-.9.8-1.9 1.2-3 1.2a4.1 4.1 0 0 1-4.2-4.2 4 4 0 0 1 1.2-3 4 4 0 0 1 3-1.2 4 4 0 0 1 3 1.2 4 4 0 0 1 1.2 3 4 4 0 0 1-1.2 3Zm-4.6-1.4c.4.4 1 .6 1.6.6a2 2 0 0 0 1.5-.6c.4-.4.6-1 .6-1.6a2.1 2.1 0 0 0-2.1-2.2 2.1 2.1 0 0 0-2.2 2.2c0 .6.2 1.2.6 1.6Zm8.3-6.6a1.3 1.3 0 0 1-1.3-1.2c0-.4.1-.7.4-1 .2-.2.5-.3.9-.3.3 0 .6.1.9.4a1.2 1.2 0 0 1 0 1.8c-.3.2-.6.3-1 .3Zm-1 9v-8h2v8h-2Zm7.7.2a4.1 4.1 0 0 1-4.2-4.2 4.1 4.1 0 0 1 4.2-4.2c.8 0 1.5.2 2.1.5.7.4 1.2 1 1.5 1.5l-1.8 1c-.1-.3-.4-.5-.7-.7a2 2 0 0 0-1.1-.3 2.1 2.1 0 0 0-2.1 2.2c0 .6.2 1.2.6 1.6.4.4.9.6 1.5.6a2 2 0 0 0 1.1-.3c.3-.2.6-.4.7-.8l1.8 1a4 4 0 0 1-3.6 2.1Zm6.3-3.4c.3 1 1 1.6 2.3 1.6.8 0 1.4-.3 1.8-.8l1.7 1a4 4 0 0 1-3.5 1.6 4.1 4.1 0 0 1-4.4-4.2 4.1 4.1 0 0 1 4.2-4.2c1.2 0 2.1.4 2.9 1.2a4 4 0 0 1 1.2 3l-.1.8h-6Zm0-1.6h4a2 2 0 0 0-.6-1.2 2 2 0 0 0-1.3-.4c-.6 0-1 .2-1.4.5a2 2 0 0 0-.7 1.1Z"/>
      <g fill="#DFE7F0" clip-path="url(#d)">
        <path d="M382 432.8h2.7v8.2H382v-8.3Zm10 0h-.7c-1.5 0-2.5 1-2.9 1.5v-1.6h-2.6v8.3h2.6v-4.5s2-2.8 3-.8v5.3h2.6v-5.6a2.7 2.7 0 0 0-2-2.6Zm-8.7-1.2a1.3 1.3 0 1 0 0-2.6 1.3 1.3 0 0 0 0 2.6Z"/>
      </g>
    </g>
    <path fill="#F2B0AF" d="M360 78.8a53.8 53.8 0 1 1 107.5 0v2.4a53.8 53.8 0 0 1-107.5 0v-2.4Z"/>
    <path fill="#000" d="M405.8 92.6a16.2 16.2 0 0 0 17.6 23.3c9-1.7 14.9-10.1 13.3-19-2.9-15.3-23.9-18-31-4.3Zm28.9 4.7A14.3 14.3 0 0 1 423 114c-11.7 2.1-21.2-10.1-15.2-20.8 6.6-11.6 24.4-8.9 26.9 4.2Z"/>
    <path fill="#000" d="M442.9 113.2c.3-3-1-4.6-2.8-4.9a21 21 0 0 0-13.4-28.8v-28c1.4-1.2 1.6-1.2 1.8-1.6 1.5 1.8 3 3.4 4.5 4.8a1 1 0 0 0 1.6-.3l5.4-12a1 1 0 0 0-1-1.5c-14.3 1.3-14.6.2-15.2 1.3a1 1 0 0 0 0 1 84 84 0 0 0 3.3 4.8c-2 .5-17.3 15-28.8 22.6-7.7-4.1-8.3-3.8-8.8-3.4-.2.1-5.4 4.4-19.6 15.3a1.3 1.3 0 1 0 1.6 2l1.7-1.2-.3 14.4c-1 .8-.3 2.3.8 2.3h4l21.2 3.8a21.3 21.3 0 0 0 34 14.3c.9 1.3 2.6 1.6 4.1 1.4a27 27 0 0 0 2.2 1.6c2.8 2 11.1 9.7 15 9 .9-.1 2-.4 2.5-1.2 1-1.3 1.3-4.2-.2-5.3L443 113.2Zm12.4 12c.3.2.3 1.8-.2 2.5-.3.4-1.9.4-2.5 0l-12.5-9.7c1-1 1.7-1.8 2.2-2.8l13 10Zm-15.7-29c2 10.6-5.2 20.5-15.7 22.5-15.7 2.8-28.6-13.5-20.5-28.1 8.8-15.7 33-12 36.2 5.7Zm-16.4-42-1 24.5c-4-.3-7.8.4-11.5 2.3l.8-17 11.7-9.8Zm-24.2 19a154 154 0 0 0 9.8-7c-.8 17-.9 15.8-.7 16.3a21.2 21.2 0 0 0-9 14.8h-8.5l.9-27.1c6.2 2.8 6.4 3.7 7.5 3ZM389 71l-1 26.3h-12.4l.4-16.1c12.4-9.6 10.3-8 13-10.2Z"/>
  </g>
  <defs>
    <clipPath id="a">
      <path fill="#fff" d="M0 0h530v512H0z"/>
    </clipPath>
    <clipPath id="b">
      <path fill="#fff" d="M70 132a91 91 0 0 1 91-91h200a91 91 0 0 1 91 91v194a91 91 0 0 1-91 91H161a91 91 0 0 1-91-91V132Z"/>
    </clipPath>
    <clipPath id="d">
      <path fill="#fff" d="M382 429h12v12h-12z"/>
    </clipPath>
    <filter id="c" width="527" height="153" x="2" y="362" color-interpolation-filters="sRGB" filterUnits="userSpaceOnUse">
      <feFlood flood-opacity="0" result="BackgroundImageFix"/>
      <feColorMatrix in="SourceAlpha" result="hardAlpha" values="0 0 0 0 0 0 0 0 0 0 0 0 0 0 0 0 0 0 127 0"/>
      <feOffset dx="4" dy="4"/>
      <feGaussianBlur stdDeviation="12"/>
      <feComposite in2="hardAlpha" operator="out"/>
      <feColorMatrix values="0 0 0 0 0 0 0 0 0 0 0 0 0 0 0 0 0 0 0.12 0"/>
      <feBlend in2="BackgroundImageFix" result="effect1_dropShadow_692_23299"/>
      <feBlend in="SourceGraphic" in2="effect1_dropShadow_692_23299" result="shape"/>
    </filter>
  </defs>
</svg>
