<?xml version="1.0" encoding="utf-8"?>
<svg xmlns="http://www.w3.org/2000/svg" fill="none" height="200" viewBox="0 0 200 200" width="200">
<g id="empty-inbox (1) 1">
<path d="M172.527 52.0012V51.9772C172.526 51.9812 172.525 51.9852 172.524 51.9892C172.523 51.9852 172.521 51.9812 172.521 51.9772V52.0012C172.207 53.1405 171.481 53.9552 170.343 54.4452C171.481 54.9352 172.207 55.7499 172.521 56.8892V56.9132C172.522 56.9092 172.523 56.9052 172.524 56.9012C172.525 56.9052 172.527 56.9092 172.527 56.9132V56.8892C172.841 55.7499 173.567 54.9352 174.705 54.4452C173.567 53.9552 172.841 53.1405 172.527 52.0012ZM128.743 22.0739V22.0499C128.742 22.0539 128.741 22.0579 128.74 22.0619C128.739 22.0579 128.737 22.0539 128.737 22.0499V22.0739C128.423 23.2132 127.697 24.0279 126.559 24.5179C127.697 25.0079 128.423 25.8225 128.737 26.9619V26.9859C128.738 26.9819 128.739 26.9779 128.74 26.9739C128.741 26.9779 128.743 26.9819 128.743 26.9859V26.9619C129.057 25.8225 129.783 25.0079 130.921 24.5179C129.783 24.0279 129.057 23.2132 128.743 22.0739ZM62.2606 127.173V127.149C62.2593 127.153 62.258 127.157 62.2573 127.161C62.256 127.157 62.2547 127.153 62.254 127.149V127.173C61.94 128.313 61.214 129.127 60.076 129.617C61.214 130.107 61.94 130.922 62.254 132.061V132.085C62.2553 132.081 62.2566 132.077 62.2573 132.073C62.2586 132.077 62.26 132.081 62.2606 132.085V132.061C62.5746 130.922 63.3006 130.107 64.4386 129.617C63.3006 129.127 62.5746 128.313 62.2606 127.173ZM26.2766 94.9159V94.8919C26.2753 94.8959 26.274 94.8998 26.2733 94.9039C26.272 94.8998 26.2706 94.8959 26.27 94.8919V94.9159C25.956 96.0552 25.23 96.8699 24.092 97.3599C25.23 97.8499 25.956 98.6645 26.27 99.8039V99.8279C26.2713 99.8239 26.2726 99.8199 26.2733 99.8159C26.2746 99.8199 26.276 99.8239 26.2766 99.8279V99.8039C26.5906 98.6645 27.3166 97.8499 28.4546 97.3599C27.3166 96.8699 26.5906 96.0552 26.2766 94.9159ZM26.28 133V132.951C26.278 132.96 26.2753 132.967 26.2733 132.976C26.2713 132.967 26.2686 132.96 26.2666 132.951V133C25.6386 135.278 24.1866 136.908 21.9106 137.888C24.1866 138.868 25.638 140.498 26.2666 142.776V142.825C26.2686 142.816 26.2713 142.809 26.2733 142.8C26.2753 142.809 26.278 142.816 26.28 142.825V142.776C26.908 140.498 28.36 138.868 30.636 137.888C28.36 136.908 26.9086 135.278 26.28 133ZM165.681 14.6932V14.6445C165.679 14.6532 165.677 14.6605 165.675 14.6692C165.673 14.6605 165.67 14.6532 165.668 14.6445V14.6932C165.04 16.9712 163.588 18.6012 161.312 19.5812C163.588 20.5612 165.039 22.1912 165.668 24.4692V24.5179C165.67 24.5092 165.673 24.5019 165.675 24.4932C165.677 24.5019 165.679 24.5092 165.681 24.5179V24.4692C166.309 22.1912 167.761 20.5612 170.037 19.5812C167.761 18.6012 166.31 16.9712 165.681 14.6932Z" fill="#9CA9BA" id="Vector"/>
<path d="M191.649 191.667C167.377 169.791 135.239 156.475 99.9906 156.475C64.742 156.475 32.6046 169.791 8.33331 191.667" fill="white" id="Vector_2"/>
<path d="M191.649 191.999C191.569 191.999 191.489 191.971 191.425 191.913C185.367 186.453 178.787 181.51 171.869 177.221C164.876 172.887 157.455 169.171 149.815 166.177C133.948 159.959 117.185 156.807 99.9913 156.807C82.7973 156.807 66.0347 159.96 50.168 166.177C42.5267 169.171 35.1067 172.887 28.114 177.221C21.1953 181.51 14.6153 186.453 8.55734 191.913C8.42067 192.037 8.21 192.025 8.08667 191.889C7.96334 191.752 7.97467 191.541 8.11134 191.418C14.1993 185.931 20.8107 180.964 27.7633 176.655C34.7907 172.299 42.2467 168.565 49.9253 165.556C65.87 159.308 82.7147 156.141 99.992 156.141C117.269 156.141 134.114 159.309 150.059 165.556C157.737 168.565 165.194 172.299 172.221 176.655C179.173 180.964 185.785 185.931 191.873 191.418C192.009 191.541 192.02 191.752 191.897 191.889C191.831 191.962 191.741 191.999 191.649 191.999L191.649 191.999Z" fill="#535A63" id="Vector_3"/>
<path d="M21.7534 181.007V175.421C21.7534 175.421 29.186 167.315 38.1014 162.317C53.4087 153.736 61.2634 154.769 61.2634 154.769L72.1547 159.306C72.1547 159.306 64.9507 169.451 50.3934 176.813C39.7734 182.184 30.7947 184.235 30.7947 184.235" fill="white" id="Vector_4"/>
<path d="M30.7953 184.568C30.6433 184.568 30.506 184.463 30.4706 184.308C30.4293 184.129 30.542 183.95 30.7213 183.909C30.8106 183.888 39.786 181.803 50.2433 176.514C57.7266 172.73 63.216 168.194 66.5033 165.056C69.3073 162.38 71.0226 160.244 71.632 159.448L61.1793 155.094C60.8813 155.064 58.9353 154.921 55.4373 155.661C49.0846 157.006 42.592 160.18 38.264 162.606C30.0106 167.233 22.948 174.632 22.086 175.551V181.006C22.086 181.19 21.9366 181.34 21.7526 181.34C21.5686 181.34 21.4193 181.19 21.4193 181.006V175.42C21.4193 175.337 21.4506 175.256 21.5066 175.195C21.5813 175.114 29.078 166.992 37.9373 162.025C42.322 159.567 48.9033 156.352 55.3533 154.998C59.2413 154.181 61.2233 154.426 61.306 154.438C61.3353 154.442 61.3633 154.449 61.3906 154.46L72.282 158.997C72.3753 159.036 72.446 159.116 72.474 159.213C72.502 159.31 72.484 159.415 72.4253 159.498C72.4073 159.523 70.564 162.1 66.962 165.539C63.642 168.708 58.0986 173.288 50.5426 177.11C40.008 182.437 30.958 184.538 30.868 184.559C30.8433 184.565 30.818 184.568 30.7933 184.568H30.7953Z" fill="#535A63" id="Vector_5"/>
<path d="M26.2733 175.871C26.14 175.871 26.014 175.79 25.9627 175.659C25.896 175.488 25.98 175.294 26.1513 175.227C26.1733 175.218 28.494 174.301 39.5854 169.18C50.6247 164.082 54.8593 159.472 54.9013 159.426C55.0247 159.29 55.2353 159.279 55.372 159.402C55.5087 159.525 55.52 159.736 55.3967 159.872C55.3533 159.921 54.302 161.078 51.8533 162.886C49.606 164.546 45.7013 167.09 39.8647 169.785C28.7347 174.924 26.4847 175.812 26.394 175.848C26.354 175.863 26.3133 175.87 26.2727 175.87L26.2733 175.871Z" fill="#535A63" id="Vector_6"/>
<path d="M124.815 158.725C124.815 158.725 132.977 156.475 134.145 156.475C137.589 156.475 143.035 157.101 155.49 162.877C167.945 168.653 175.375 174.993 175.375 174.993L179.817 182.131C179.817 182.131 167.92 183.657 151.611 177.34C135.301 171.022 127.179 164.163 127.179 164.163" fill="white" id="Vector_7"/>
<path d="M176.303 182.629C175.083 182.629 173.571 182.581 171.802 182.437C167.206 182.063 159.952 180.929 151.49 177.651C146.827 175.844 139.852 172.819 133.104 168.666C129.06 166.177 126.984 164.435 126.963 164.417C126.823 164.299 126.805 164.088 126.924 163.947C127.043 163.807 127.253 163.789 127.394 163.907C127.414 163.925 129.463 165.643 133.471 168.108C137.169 170.383 143.339 173.777 151.731 177.029C160.108 180.273 167.286 181.398 171.833 181.77C175.57 182.076 178.189 181.937 179.25 181.851L175.12 175.213C174.524 174.715 167.16 168.655 155.35 163.179C149.753 160.583 145.175 158.833 141.354 157.831C137.893 156.923 135.684 156.807 134.145 156.807C133.225 156.807 127.163 158.423 124.905 159.045C124.727 159.094 124.543 158.99 124.495 158.813C124.446 158.635 124.55 158.451 124.727 158.403C125.567 158.171 132.967 156.141 134.145 156.141C137.91 156.141 143.407 156.905 155.631 162.574C162.085 165.567 167.165 168.713 170.29 170.825C173.681 173.115 175.573 174.723 175.591 174.739C175.617 174.761 175.64 174.788 175.658 174.817L180.1 181.955C180.16 182.051 180.167 182.171 180.118 182.274C180.069 182.377 179.972 182.447 179.859 182.461C179.78 182.471 178.525 182.627 176.304 182.627L176.303 182.629Z" fill="#535A63" id="Vector_8"/>
<path d="M170.343 175.274C170.331 175.274 170.319 175.274 170.307 175.272C170.215 175.262 160.966 174.217 150.769 169.69C147.828 168.384 143.536 166.286 139.787 163.7C137.531 162.144 136.552 161.16 136.511 161.118C136.382 160.987 136.383 160.776 136.515 160.647C136.645 160.518 136.857 160.519 136.986 160.65C137.034 160.699 140.977 164.613 151.039 169.08C161.137 173.563 170.287 174.599 170.379 174.608C170.562 174.628 170.694 174.793 170.674 174.976C170.655 175.146 170.511 175.273 170.343 175.273V175.274Z" fill="#535A63" id="Vector_9"/>
<path d="M105.135 157.851C103.187 159.831 101.134 159.945 98.9773 158.195L94.7687 82.8167L100.927 82.4727L105.135 157.851Z" fill="#7A8593" id="Vector_10"/>
<path d="M101.947 159.761C100.905 159.761 99.836 159.322 98.7667 158.454C98.694 158.395 98.6493 158.308 98.644 158.214L94.4353 82.8365C94.4307 82.7485 94.4607 82.6618 94.5193 82.5958C94.578 82.5298 94.6607 82.4898 94.7493 82.4851L100.907 82.1411C101.091 82.1311 101.249 82.2718 101.259 82.4551L105.467 157.833C105.472 157.927 105.437 158.018 105.371 158.086C104.342 159.132 103.259 159.694 102.151 159.756C102.083 159.76 102.014 159.762 101.945 159.762L101.947 159.761ZM99.3013 158.028C101.238 159.541 103.037 159.44 104.793 157.721L100.612 82.8251L95.12 83.1318L99.3013 158.028Z" fill="#535A63" id="Vector_11"/>
<path d="M133.737 87.3306L133.469 72.47C133.439 65.984 128.698 55.1793 122.013 54.302L79.9413 48.7793L74.7466 88.356L108.768 92.8213L116.819 93.878L124.869 94.9346C129.677 95.566 133.761 91.996 133.737 87.33V87.3306Z" fill="#BECEE2" id="Vector_12"/>
<path d="M125.953 95.3388C125.579 95.3388 125.203 95.3141 124.826 95.2648L74.7033 88.6854C74.5206 88.6614 74.392 88.4941 74.416 88.3114L79.6106 48.7348C79.622 48.6474 79.668 48.5674 79.738 48.5141C79.808 48.4601 79.8966 48.4368 79.9846 48.4481L122.057 53.9708C125.171 54.3794 128.179 56.9181 130.527 61.1194C132.531 64.7041 133.787 69.0528 133.803 72.4681L134.07 87.3241C134.07 87.3241 134.07 87.3268 134.07 87.3281C134.082 89.6234 133.109 91.8054 131.399 93.3134C129.91 94.6274 127.971 95.3388 125.953 95.3388ZM75.1206 88.0681L124.913 94.6041C127.135 94.8961 129.338 94.2428 130.959 92.8134C132.523 91.4334 133.415 89.4361 133.404 87.3334L133.137 72.4748C133.121 69.1614 131.899 64.9368 129.946 61.4441C127.703 57.4314 124.87 55.0121 121.971 54.6314L80.2286 49.1521L75.1206 88.0674V88.0681Z" fill="#535A63" id="Vector_13"/>
<path d="M82.7973 89.4117L66.696 87.2984C61.888 86.667 58.8633 82.1644 60.0913 77.663L64.1847 63.375C65.888 57.1164 73.2567 47.9017 79.9407 48.779C86.6247 49.6564 91.366 60.4604 91.3967 66.947L91.664 81.8077C91.6893 86.4737 87.6047 90.043 82.7967 89.4123L82.7973 89.4117Z" fill="#7A8593" id="Vector_14"/>
<path d="M83.8807 89.8158C83.5074 89.8158 83.1307 89.7911 82.754 89.7418L66.6527 87.6284C64.2407 87.3118 62.1094 86.0064 60.806 84.0464C59.5434 82.1484 59.166 79.7891 59.77 77.5744L63.8647 63.2818C64.76 59.9911 67.0947 56.1138 69.9567 53.1671C73.31 49.7144 76.8707 48.0384 79.9854 48.4471C83.0994 48.8558 86.1074 51.3944 88.456 55.5958C90.46 59.1804 91.7154 63.5291 91.7314 66.9444L91.9987 81.8004C92.0114 84.1004 91.0374 86.2818 89.328 87.7898C87.8387 89.1038 85.9 89.8151 83.8814 89.8151L83.8807 89.8158ZM82.8407 89.0811C85.062 89.3724 87.2654 88.7198 88.886 87.2904C90.4514 85.9098 91.3427 83.9118 91.3314 81.8084L91.064 66.9518C91.0487 63.6384 89.826 59.4138 87.8734 55.9211C85.63 51.9084 82.7974 49.4891 79.898 49.1084C76.998 48.7278 73.6374 50.3344 70.4347 53.6318C67.6474 56.5018 65.376 60.2684 64.5067 63.4611L60.412 77.7538C59.8594 79.7784 60.2047 81.9391 61.3607 83.6764C62.5574 85.4758 64.518 86.6751 66.7394 86.9664L82.8407 89.0798V89.0811Z" fill="#535A63" id="Vector_15"/>
<path d="M83.3647 89.4868L67.8287 87.4474C63.19 86.8388 57.7913 88.8368 56.1613 91.6961L51.158 100.813C48.8867 104.788 49.8487 111.626 56.298 112.473C62.7473 113.319 73.4707 108.015 77.4147 104.259L86.626 95.6954C89.466 92.9948 88.004 90.0961 83.3653 89.4874L83.3647 89.4868Z" fill="white" id="Vector_16"/>
<path d="M57.7367 112.895C57.222 112.895 56.7267 112.866 56.254 112.804C52.914 112.365 51.3107 110.455 50.554 108.93C49.326 106.455 49.452 103.126 50.868 100.648L55.868 91.5369C56.7007 90.0762 58.434 88.8075 60.7513 87.9589C63.054 87.1162 65.5827 86.8175 67.8713 87.1175L83.4073 89.1569C86.006 89.4982 87.7793 90.5629 88.2733 92.0789C88.676 93.3142 88.172 94.6842 86.854 95.9369L77.64 104.504C73.816 108.145 64.2573 112.894 57.736 112.895H57.7367ZM66.1173 87.6722C62.0807 87.6722 57.8327 89.4382 56.4507 91.8615L51.45 100.974C50.1367 103.272 50.0173 106.349 51.1513 108.634C51.836 110.014 53.292 111.742 56.3407 112.142C59.184 112.516 63.2053 111.678 67.6647 109.785C71.5193 108.148 75.1667 105.939 77.184 104.018L86.398 95.4509C87.516 94.3875 87.958 93.2622 87.64 92.2849C87.2347 91.0415 85.6207 90.1189 83.3213 89.8169L67.7853 87.7775C67.2393 87.7055 66.68 87.6715 66.1173 87.6715V87.6722Z" fill="#535A63" id="Vector_17"/>
<path d="M112.217 43.054L104.1 41.9883L103.361 47.614L111.478 48.6797L112.217 43.054Z" fill="white" id="Vector_18"/>
<path d="M111.481 49.0079C111.466 49.0079 111.451 49.0073 111.437 49.0053L103.32 47.9399C103.232 47.9286 103.153 47.8826 103.099 47.8126C103.045 47.7426 103.021 47.6539 103.033 47.5659L103.771 41.9406C103.795 41.7579 103.963 41.6293 104.145 41.6533L112.262 42.7186C112.35 42.7299 112.429 42.7759 112.483 42.8459C112.537 42.9159 112.561 43.0046 112.549 43.0926L111.811 48.7179C111.789 48.8859 111.645 49.0079 111.481 49.0079ZM103.737 47.3219L111.193 48.3006L111.845 43.3359L104.389 42.3573L103.737 47.3219Z" fill="#535A63" id="Vector_19"/>
<path d="M125.376 70.7793L114.849 69.3973C113.983 69.2836 113.189 69.8934 113.076 70.7593L113.044 70.9986C112.931 71.8645 113.54 72.6586 114.406 72.7723L124.933 74.1544C125.798 74.2681 126.593 73.6583 126.706 72.7924L126.738 72.5531C126.851 71.6872 126.242 70.893 125.376 70.7793Z" fill="white" id="Vector_20"/>
<path d="M125.143 74.4967C125.06 74.4967 124.977 74.4913 124.892 74.48L114.365 73.098C113.858 73.0313 113.407 72.7713 113.096 72.366C112.785 71.9607 112.649 71.458 112.716 70.9507L112.747 70.7107C112.885 69.664 113.848 68.924 114.895 69.0613L125.421 70.4433C125.929 70.51 126.379 70.77 126.691 71.1753C127.002 71.5807 127.137 72.0833 127.071 72.5907L127.039 72.8307C126.913 73.7933 126.088 74.496 125.143 74.496V74.4967ZM124.979 73.8193C125.661 73.9087 126.289 73.4267 126.379 72.7447L126.41 72.5047C126.453 72.174 126.365 71.8467 126.163 71.582C125.959 71.3173 125.666 71.148 125.335 71.1047L114.809 69.7227C114.127 69.6333 113.499 70.1153 113.409 70.7973L113.377 71.0373C113.334 71.368 113.422 71.6953 113.625 71.96C113.828 72.2247 114.121 72.394 114.452 72.4373L124.979 73.8193Z" fill="#535A63" id="Vector_21"/>
<path d="M124.405 78.1719L113.878 76.7898C113.013 76.6761 112.218 77.2859 112.105 78.1519L112.073 78.3911C111.96 79.2571 112.569 80.0512 113.435 80.1649L123.962 81.5469C124.828 81.6606 125.622 81.0508 125.735 80.1849L125.767 79.9457C125.881 79.0797 125.271 78.2856 124.405 78.1719Z" fill="white" id="Vector_22"/>
<path d="M124.173 81.8892C124.09 81.8892 124.006 81.8839 123.922 81.8726L113.395 80.4906C112.888 80.4239 112.437 80.1639 112.126 79.7586C111.815 79.3532 111.679 78.8506 111.746 78.3432L111.777 78.1032C111.844 77.5966 112.104 77.1452 112.509 76.8339C112.915 76.5226 113.417 76.3879 113.925 76.4539L124.451 77.8359C125.498 77.9732 126.238 78.9366 126.101 79.9832L126.069 80.2232C125.943 81.1859 125.118 81.8885 124.173 81.8885V81.8892ZM113.674 77.1052C113.401 77.1052 113.137 77.1945 112.917 77.3639C112.653 77.5672 112.483 77.8606 112.439 78.1912L112.408 78.4312C112.365 78.7619 112.453 79.0892 112.655 79.3539C112.859 79.6186 113.152 79.7879 113.483 79.8312L124.009 81.2132C124.693 81.3025 125.319 80.8205 125.409 80.1385L125.441 79.8986C125.53 79.2166 125.048 78.5886 124.366 78.4992L113.839 77.1172C113.784 77.1099 113.729 77.1066 113.675 77.1066L113.674 77.1052Z" fill="#535A63" id="Vector_23"/>
<g id="Group">
<path d="M166.389 130.656C176.585 130.656 184.851 122.391 184.851 112.194C184.851 101.998 176.585 93.7324 166.389 93.7324C156.192 93.7324 147.927 101.998 147.927 112.194C147.927 122.391 156.192 130.656 166.389 130.656Z" fill="#D1DEF0" id="Vector_24"/>
<path d="M170.027 94.0918C170.137 96.8645 169.95 99.7578 169.026 101.709C166.71 106.598 163.108 108.142 154.874 112.194C151.502 113.854 150.121 116.949 149.666 120.024C150.977 122.82 152.969 125.234 155.429 127.051C155.984 124.727 157.033 122.141 158.991 119.978C163.879 114.574 171.341 119.72 179.974 115.346C182.262 114.187 183.761 112.268 184.729 110.074C183.815 102.086 177.803 95.6465 170.027 94.0918Z" fill="#ADB9C8" id="Vector_25"/>
</g>
<g id="Group_2">
<path d="M35.8593 54.4419C44.3104 54.4419 51.1613 47.5909 51.1613 39.1399C51.1613 30.6888 44.3104 23.8379 35.8593 23.8379C27.4083 23.8379 20.5573 30.6888 20.5573 39.1399C20.5573 47.5909 27.4083 54.4419 35.8593 54.4419Z" fill="#E9F3FF" id="Vector_26"/>
<path d="M12.692 52.7314C11.3333 52.7314 10.5387 52.4314 10.2693 51.8194C9.88534 50.9454 10.7053 49.692 12.776 47.988C14.6193 46.4714 17.4213 44.6374 20.8787 42.6834C21.0387 42.5927 21.242 42.6494 21.3327 42.8094C21.4233 42.9694 21.3667 43.1727 21.2067 43.2634C17.7827 45.1987 15.014 47.01 13.2 48.5027C10.706 50.5547 10.7933 51.3547 10.88 51.5507C10.9847 51.7894 11.884 52.8787 19.3167 50.92C24.514 49.55 31.164 47.13 38.0427 44.1047C44.9213 41.0794 51.2 37.814 55.722 34.9094C62.1893 30.7554 61.994 29.356 61.8893 29.1174C61.804 28.9234 61.2807 28.3234 58.1327 28.7594C55.842 29.0767 52.6807 29.8747 48.9887 31.0674C48.8133 31.124 48.6253 31.028 48.5693 30.8527C48.5127 30.6774 48.6087 30.4894 48.784 30.4334C52.512 29.2294 55.7127 28.422 58.0413 28.0994C60.66 27.7367 62.118 27.982 62.5 28.8494C62.808 29.55 62.3493 30.4827 61.0967 31.7007C59.994 32.7734 58.3073 34.0414 56.0827 35.47C51.532 38.3927 45.2207 41.676 38.3113 44.7147C31.402 47.7534 24.7167 50.186 19.4867 51.5647C16.93 52.2387 14.8553 52.6247 13.32 52.712C13.0987 52.7247 12.89 52.7307 12.6927 52.7307L12.692 52.7314Z" fill="#ADB9C8" id="Vector_27"/>
</g>
<g id="Group_3">
<path d="M104.583 42.0505L102.413 41.7656L98.4651 71.8329L100.635 72.1178L104.583 42.0505Z" fill="white" id="Vector_28"/>
<path d="M100.638 72.448C100.623 72.448 100.609 72.4474 100.595 72.4454L98.4247 72.1607C98.242 72.1367 98.1133 71.9694 98.1373 71.7867L102.084 41.7194C102.095 41.632 102.141 41.552 102.211 41.4987C102.281 41.4447 102.37 41.4207 102.458 41.4327L104.628 41.7174C104.811 41.7414 104.939 41.9087 104.915 42.0914L100.969 72.1587C100.957 72.246 100.911 72.326 100.841 72.3794C100.783 72.424 100.711 72.448 100.639 72.448H100.638ZM98.842 71.5427L100.351 71.7407L104.211 42.3347L102.702 42.1367L98.842 71.5427Z" fill="#535A63" id="Vector_29"/>
</g>
<g id="Group_4">
<path d="M101.255 77.3827C103.493 77.3827 105.307 75.5682 105.307 73.33C105.307 71.0918 103.493 69.2773 101.255 69.2773C99.0165 69.2773 97.202 71.0918 97.202 73.33C97.202 75.5682 99.0165 77.3827 101.255 77.3827Z" fill="white" id="Vector_30"/>
<path d="M101.264 77.7168C101.071 77.7168 100.878 77.7041 100.684 77.6788C99.5227 77.5261 98.49 76.9308 97.776 76.0015C97.0627 75.0721 96.7534 73.9208 96.906 72.7595C97.0587 71.5981 97.654 70.5655 98.5834 69.8515C99.5127 69.1381 100.664 68.8288 101.825 68.9815C104.223 69.2961 105.918 71.5028 105.603 73.9008C105.451 75.0621 104.855 76.0948 103.926 76.8088C103.152 77.4035 102.223 77.7168 101.263 77.7168H101.264ZM101.247 69.6101C100.433 69.6101 99.646 69.8761 98.9894 70.3801C98.2014 70.9855 97.696 71.8608 97.5667 72.8461C97.4374 73.8315 97.6994 74.8075 98.3047 75.5955C98.91 76.3835 99.7854 76.8888 100.771 77.0181C101.755 77.1475 102.732 76.8855 103.52 76.2801C104.308 75.6748 104.813 74.7995 104.943 73.8141C105.209 71.7808 103.773 69.9095 101.739 69.6421C101.574 69.6208 101.41 69.6101 101.247 69.6101H101.247Z" fill="#535A63" id="Vector_31"/>
</g>
</g>
</svg>