<svg xmlns="http://www.w3.org/2000/svg" width="607" height="846" fill="none"><g clip-path="url(#a)"><path fill="#F7E32D" fill-rule="evenodd" d="M-72.287 32.902c4.412-1.28 7.66-1.015 10.092.736 5.01 3.608 6.471 13.39 4.327 34.249 4.437-18.688 8.477-26.415 13.449-27.315 2.795-.504 5.752 1.145 9.266 5.34-1.625-4.596-1.532-7.63.155-9.563 3.347-3.834 12.973-2.721 33.682 4.639-16.644-8.324-22.943-13.716-22.382-18.234.368-2.968 3.649-5.316 10.699-7.368-7.88.23-11.762-.954-12.863-3.614-1.547-3.737 2.91-9.878 16.054-21.048C-25.447.743-31.205 1.732-34.096-.58c-2.46-1.964-2.51-6.617.097-15.075-5.127 8.8-9.324 12.486-13.426 12.185-4.612-.342-8.907-5.84-13.802-18.412 3.71 16.732 3.124 21.382.722 22.58-1.704.856-4.163-.043-9.5-5.792 2.602 5.22 2.971 8.871 1.319 11.463-2.979 4.671-12.205 5.6-32.172 2.447 22.787 6.477 31.654 11.348 32.398 16.772.324 2.356-.924 4.737-3.94 7.346l.113-.033Zm8.638 71.111a.883.883 0 0 1-1.114-.998c6.484-37.948 9.005-62.543 1.546-67.9-3.353-2.41-8.942-1.267-18.126 3.709a.88.88 0 0 1-1.268-.533.884.884 0 0 1 .428-1.022c8.6-4.657 12.407-8.276 11.981-11.385-1.049-7.659-27.322-15.162-69.377-24.786a.884.884 0 0 1 .393-1.721c38.196 8.74 64.551 13.126 69.034 6.12 2.329-3.64-1.02-11.102-10.538-23.481a.884.884 0 0 1 1.397-1.078C-69.24-5.987-63.173.169-61.26-.801c4.06-2.022-5.336-36.189-9.347-50.779-.13-.47.15-.982.617-1.085a.882.882 0 0 1 1.081.607l.004.01C-62.301-28.03-55.108-5.727-47.25-5.152c5.226.379 11.636-8.706 20.74-29.483a.884.884 0 0 1 1.617.71c-5.36 12.232-12.026 28.86-8.047 32.031 5.12 4.08 28.837-12.525 51.361-29.307a.882.882 0 0 1 1.054 1.417c-22.9 17.062-45.993 35.266-43.65 40.925 1.732 4.181 18.024 2.309 30.128.537a.882.882 0 0 1 1 .746.868.868 0 0 1-.744 1c-11.765 1.725-27.48 4.592-28.105 9.58-.883 7.055 26.98 19.731 57.222 32.377a.884.884 0 0 1-.679 1.63C-2.848 41.33-28.815 32.013-33.639 37.533c-2.203 2.518-.35 8.642 5.835 19.275a.884.884 0 0 1-.318 1.207.884.884 0 0 1-1.208-.32c-6.474-11.13-11.163-16.013-14.756-15.364-7.275 1.337-12.846 25.33-18.94 60.984a.882.882 0 0 1-.623.699Z" clip-rule="evenodd"/><path fill="#ED6F6E" d="M-53 0h660v916H-53z"/><path fill="#FA8C8B" d="M212.392 228.058a424.997 424.997 0 0 1 454.514-43.756 424.994 424.994 0 0 1 231.84 393.38 424.998 424.998 0 0 1-708.857 301.397L474 563 212.392 228.058Z"/></g><defs><clipPath id="a"><path fill="#fff" d="M0 0h607v846H0z"/></clipPath></defs></svg>