<svg width="490" height="493" viewBox="0 0 490 493" fill="none" xmlns="http://www.w3.org/2000/svg">
<rect x="297" y="27" width="193" height="144" rx="72" fill="#FEF8F7"/>
<path d="M121.5 383.59L178.5 406L165 464H57L121.5 383.59Z" fill="#008060" fill-opacity="0.07"/>
<path d="M281.151 261.934C281.23 263.413 281.442 264.881 281.783 266.322L111.392 269.772V247.007L282.243 248.846C281.831 250.269 281.542 251.724 281.381 253.196C281.199 254.653 281.093 256.099 281.055 257.556C281.01 259.016 281.042 260.477 281.151 261.934ZM299.029 247.007V262.873L281.783 266.322C282.191 264.899 282.479 263.444 282.645 261.973C282.818 260.516 282.933 259.069 282.971 257.613C283.009 256.157 282.971 254.691 282.866 253.235C282.785 251.757 282.576 250.288 282.243 248.846L299.029 247.007ZM140.441 87.773L141 119.814C141.191 130.413 141.348 140.909 141.449 151.358C141.543 161.807 141.644 172.222 141.538 182.61C141.43 192.999 141.231 203.42 141.054 213.894L140.451 213.208C146.529 214.117 152.613 214.983 158.702 215.806L167.839 217.022L176.986 218.161C183.083 218.923 189.179 219.691 195.287 220.374L213.603 222.472L212.571 223.38C212.409 214.656 212.331 205.932 212.238 197.209L212.059 171.038C212.007 162.314 211.938 153.591 211.951 144.867C211.922 136.143 212 127.42 212.035 118.696L212.919 120.031L194.992 112.167C189.012 109.514 183.029 106.899 177.016 104.176L140.441 87.773ZM140.283 87.5332L176.832 102.173C183.006 104.624 189.209 107.182 195.417 109.704L214.052 117.361L214.932 117.723L214.936 118.696C214.971 127.42 215.049 136.143 215.019 144.867C215.033 153.591 214.964 162.314 214.912 171.038L214.733 197.209C214.64 205.932 214.561 214.656 214.4 223.38L214.381 224.434L213.367 224.287L195.122 221.642C189.043 220.745 182.952 219.932 176.862 219.113L167.728 217.88L158.583 216.726C152.485 215.974 146.381 215.259 140.273 214.58L139.681 214.515L139.67 213.894C139.493 203.328 139.293 192.709 139.185 182.058C139.08 171.405 139.181 160.781 139.275 150.189C139.376 139.598 139.533 129.054 139.724 118.612L140.283 87.5332Z" fill="black"/>
<path d="M151.399 102.139V198.027L205.207 206.995V125.594L151.399 102.139Z" fill="black"/>
<path d="M185.202 213.319C188.901 213.319 188.907 207.57 185.202 207.57C181.503 207.57 181.497 213.319 185.202 213.319ZM166.494 217.284C166.891 219.932 167.098 222.58 167.239 225.228C167.392 227.876 167.433 230.524 167.452 233.172L167.402 237.144C167.369 237.775 167.371 238.406 167.407 239.036C167.46 239.655 167.546 240.271 167.666 240.882C168.226 243.406 169.437 245.739 171.178 247.65C168.815 246.186 167.057 243.923 166.222 241.272C165.796 239.938 165.582 238.545 165.587 237.144L165.537 233.172C165.556 230.524 165.597 227.876 165.749 225.228C165.89 222.58 166.098 219.932 166.494 217.284ZM182.86 219.406C183.09 222.107 183.133 224.791 183.108 227.471C183.114 228.811 183.051 230.148 183.021 231.486C183.003 232.155 182.958 232.823 182.928 233.491L182.877 234.493L182.854 234.991L182.874 235.434C182.986 237.937 183.849 240.347 185.352 242.352C185.735 242.857 186.152 243.336 186.599 243.786C187.07 244.238 187.57 244.658 188.096 245.043C189.135 245.889 190.18 246.732 191.18 247.65C189.945 247.087 188.754 246.449 187.557 245.814C186.94 245.499 186.347 245.14 185.781 244.739C185.217 244.309 184.69 243.832 184.206 243.313C182.237 241.174 181.087 238.407 180.96 235.501L180.951 234.939L180.985 234.433L181.058 233.428C181.111 232.758 181.148 232.087 181.213 231.418C181.347 230.079 181.449 228.739 181.62 227.403C181.926 224.729 182.299 222.059 182.86 219.406Z" fill="black"/>
<path d="M126.221 266.587H120.472V462.467H126.221V266.587Z" fill="black"/>
<path d="M212.681 266.587H206.932V462.467H212.681V266.587Z" fill="black"/>
<path d="M271.547 266.587H265.798V462.467H271.547V266.587Z" fill="black"/>
<path d="M335.683 116.511C335.854 118.234 335.922 119.96 335.936 121.694C335.936 122.561 335.919 123.431 335.854 124.306C335.821 125.22 335.677 126.127 335.424 127.007C334.724 128.539 334.104 130.107 333.564 131.704C333.468 132 333.432 132.312 333.458 132.622C333.484 132.931 333.573 133.233 333.718 133.508C334.15 133.993 334.727 134.326 335.363 134.458L335.657 134.546L335.795 134.713C336.78 135.922 337.693 137.189 338.529 138.505C338.956 139.171 339.341 139.862 339.681 140.576C339.861 140.949 340.004 141.338 340.108 141.739C340.187 142.1 340.29 142.455 340.416 142.802C341.43 145.563 343.596 148.13 346.462 148.887C346.813 148.984 347.172 149.051 347.535 149.085L348.075 149.142C348.256 149.146 348.439 149.135 348.62 149.133L349.781 149.12C350.196 149.106 350.61 149.14 351.017 149.222C352.683 149.511 354.203 150.353 355.331 151.613C356.457 152.831 357.303 154.28 357.809 155.859C358.355 157.462 358.516 159.171 358.281 160.848L357.577 159.714C358.63 159.916 359.695 160.046 360.766 160.103C361.862 160.144 362.96 160.126 364.055 160.05C365.153 159.976 366.246 159.832 367.326 159.618L368.945 159.272L370.538 158.809C371.074 158.666 371.579 158.434 372.105 158.254C372.633 158.077 373.148 157.865 373.647 157.62L375.171 156.923L376.638 156.102C377.65 155.597 378.515 154.87 379.486 154.277C380.417 153.63 381.27 152.879 382.199 152.2L382.335 152.335C381.56 153.179 380.79 154.047 379.951 154.844C379.52 155.231 379.084 155.614 378.639 155.988C378.204 156.374 377.742 156.73 377.258 157.054C375.373 158.458 373.306 159.599 371.113 160.446C368.902 161.305 366.582 161.851 364.22 162.068C361.824 162.321 359.402 162.166 357.058 161.607L356.185 161.388L356.354 160.473C356.548 159.089 356.454 157.679 356.079 156.332C355.703 154.985 355.054 153.73 354.172 152.645C353.306 151.545 352.115 150.745 350.768 150.36C350.432 150.256 350.084 150.193 349.732 150.172L349.2 150.126L348.597 150.088C348.395 150.074 348.194 150.067 347.994 150.045L347.398 149.932C347.002 149.859 346.613 149.753 346.236 149.614C344.736 149.072 343.391 148.173 342.318 146.993C341.249 145.837 340.376 144.514 339.732 143.078C339.577 142.72 339.428 142.33 339.301 141.967C339.174 141.637 339.016 141.32 338.83 141.02C338.44 140.387 338.012 139.778 337.547 139.197C336.622 138.015 335.583 136.894 334.576 135.79L335.007 136.045C333.938 135.884 332.971 135.321 332.302 134.471C332.123 134.233 331.99 133.963 331.91 133.675C331.816 133.406 331.764 133.124 331.754 132.839C331.737 132.325 331.794 131.811 331.925 131.313C332.497 129.658 333.205 128.052 334.041 126.513C334.305 125.75 334.49 124.963 334.593 124.162C334.717 123.329 334.837 122.485 334.934 121.636C335.142 119.938 335.306 118.226 335.492 116.511L335.683 116.511Z" fill="black"/>
<path d="M337.305 123.404L336.63 122.724C337.753 121.677 339.114 120.919 340.597 120.516C342.079 120.114 343.637 120.079 345.136 120.415L344.907 121.345C343.568 121.059 342.179 121.097 340.857 121.455C339.535 121.813 338.317 122.481 337.305 123.404ZM340.531 127.491C340.904 127.478 341.257 127.321 341.517 127.053C341.776 126.785 341.921 126.427 341.921 126.054C341.921 125.681 341.776 125.322 341.517 125.054C341.257 124.786 340.904 124.629 340.531 124.617C340.159 124.629 339.806 124.786 339.546 125.054C339.287 125.322 339.142 125.681 339.142 126.054C339.142 126.427 339.287 126.785 339.546 127.053C339.806 127.321 340.159 127.478 340.531 127.491V127.491ZM336.967 134.811V133.853C337.315 133.853 337.407 133.724 337.437 133.682C337.589 133.273 337.587 132.822 337.432 132.414L338.342 132.111C338.469 132.456 338.523 132.823 338.501 133.19C338.479 133.557 338.381 133.915 338.215 134.242C338.07 134.433 337.881 134.585 337.663 134.684C337.445 134.784 337.206 134.827 336.967 134.811V134.811Z" fill="black"/>
<path d="M334.093 114.901C334.093 114.901 345.59 123.628 355.708 121.852C355.708 121.852 360.767 114.879 362.147 120.639C363.526 126.399 363.756 133.412 359.387 132.262C359.387 132.262 355.823 145.369 361.802 155.487C367.78 165.605 373.069 162.156 374.219 171.353C375.369 180.551 408.021 180.551 399.053 166.525C390.085 152.498 386.866 135.942 386.866 135.712C386.866 135.482 380.427 105.129 373.989 101.679C367.55 98.23 336.967 95.2408 334.093 114.901ZM352.144 174.573C352.144 174.573 341.336 166.295 342.256 158.936C343.176 151.578 339.727 141.92 339.727 141.92C340.302 144.105 343.176 149.853 349.155 149.623C355.133 149.393 358.123 156.522 357.318 160.661L352.144 174.573Z" fill="black"/>
<path d="M400.105 173.14C402.378 175.833 404.279 178.82 405.754 182.02C407.253 185.214 408.512 188.515 409.521 191.895C411.48 198.661 412.873 205.578 413.685 212.575C415.34 226.527 415.609 240.608 414.487 254.613L414.479 254.708L414.427 254.765C413.058 256.171 411.312 257.152 409.399 257.588C411.195 256.965 412.793 255.876 414.029 254.432L413.969 254.584C413.972 247.597 413.823 240.61 413.481 233.642C413.155 226.673 412.62 219.719 411.807 212.804C411.025 205.892 409.801 199.037 408.141 192.281C407.276 188.918 406.21 185.61 404.95 182.374C403.707 179.115 402.08 176.015 400.105 173.14V173.14ZM343.452 215.967C342.801 213.62 342.211 211.264 341.73 208.863C341.161 206.422 341.01 203.901 341.281 201.409C342.4 196.637 343.863 191.952 345.659 187.391C347.378 182.84 349.187 178.329 351.129 173.874C353.062 169.415 355.085 164.995 357.316 160.665C355.822 165.3 354.187 169.872 352.517 174.428L347.453 188.061C346.587 190.323 345.763 192.597 344.942 194.869C344.143 197.134 343.312 199.432 342.744 201.692C342.368 204.021 342.339 206.393 342.657 208.73C342.873 211.134 343.216 213.543 343.452 215.967ZM346.411 248.887L345.457 248.812C345.56 247.498 345.637 246.192 345.684 244.933L346.642 244.968C346.594 246.242 346.517 247.56 346.411 248.887ZM370.468 164.302C368.974 165.073 367.602 166.06 366.395 167.231C365.762 167.776 365.218 168.421 364.629 169.008C364.097 169.653 363.551 170.284 363.036 170.938C362.556 171.623 362.055 172.288 361.594 172.982L360.281 175.112C359.516 176.598 358.686 178.046 358.064 179.604C357.355 181.119 356.819 182.71 356.228 184.279C355.898 185.051 355.705 185.874 355.439 186.671L354.652 189.073C354.239 190.707 353.792 192.339 353.399 193.986C353.069 195.647 352.754 197.314 352.466 198.987L352.356 198.702C354.654 200.669 357.128 202.419 359.748 203.929C362.358 205.437 365.098 206.708 367.934 207.728C370.72 208.765 373.624 209.45 376.58 209.766C378.033 209.911 379.496 209.914 380.95 209.775C382.383 209.621 383.795 209.307 385.159 208.841L386.019 208.938C385.914 208.861 385.783 208.826 385.654 208.842C385.559 208.844 385.469 208.918 385.461 208.911C385.45 208.913 385.443 208.933 385.443 208.933C385.447 208.918 385.454 208.905 385.463 208.892C385.494 208.852 385.517 208.806 385.53 208.757C385.655 208.441 385.738 208.109 385.778 207.771C385.883 206.964 385.927 206.15 385.909 205.336C385.913 203.656 385.792 201.954 385.626 200.231L385.496 198.931L385.466 198.606C385.457 198.466 385.456 198.324 385.462 198.183C385.469 197.938 385.487 197.703 385.51 197.469C385.608 196.551 385.788 195.643 386.047 194.757C386.567 193.018 387.33 191.361 388.313 189.836L388.23 190.039C388.805 187.972 389.368 185.891 389.89 183.806L390.676 180.675C390.922 179.629 391.165 178.581 391.367 177.524L391.557 177.545C391.513 178.63 391.392 179.707 391.258 180.781C391.12 181.855 390.985 182.93 390.801 183.995C390.446 186.129 390.063 188.253 389.642 190.379L389.625 190.462L389.558 190.583C388.746 192.036 388.132 193.59 387.731 195.206C387.536 195.997 387.411 196.803 387.357 197.616C387.347 197.814 387.34 198.013 387.343 198.202C387.342 198.278 387.346 198.354 387.353 198.43L387.397 198.751L387.559 200.04C387.787 201.794 387.921 203.558 387.962 205.326C387.977 206.249 387.922 207.171 387.797 208.086C387.729 208.61 387.59 209.122 387.383 209.608C387.322 209.763 387.241 209.91 387.144 210.044L386.979 210.271C386.898 210.358 386.812 210.438 386.72 210.512C386.476 210.714 386.176 210.837 385.86 210.863C385.545 210.889 385.228 210.818 384.954 210.659L385.813 210.756C384.286 211.233 382.71 211.538 381.115 211.664C379.538 211.77 377.954 211.723 376.385 211.524C374.834 211.329 373.302 211.002 371.807 210.546C370.319 210.116 368.862 209.582 367.449 208.948C364.648 207.69 361.951 206.212 359.383 204.527C356.806 202.883 354.318 201.103 351.932 199.192L351.798 199.084L351.822 198.907C352.048 197.215 352.246 195.516 352.431 193.811C352.692 192.118 353.013 190.432 353.307 188.736C353.722 187.067 354.089 185.379 354.628 183.738C355.161 182.092 355.794 180.48 356.524 178.911C357.917 175.724 359.78 172.764 362.052 170.13C362.629 169.48 363.244 168.862 363.857 168.25C364.494 167.659 365.162 167.102 365.858 166.582C367.223 165.509 368.762 164.676 370.408 164.12L370.468 164.302Z" fill="black"/>
<path d="M297.314 324.384C304.596 338.679 312.797 352.437 321.401 365.937C307.336 375.212 299.019 371.868 299.019 371.868C297.649 367.269 263.617 310.242 264.067 290.006C264.527 269.771 345.929 248.846 345.929 248.846C345.929 248.846 371.29 256.798 391.459 258.58C390.965 262.529 389.649 266.331 387.596 269.74C385.543 273.15 382.799 276.091 379.539 278.375C377.929 279.51 376.228 280.51 374.452 281.364C372.662 282.191 370.815 282.886 368.924 283.443C365.127 284.544 361.219 285.219 357.273 285.455C356.286 285.503 355.299 285.599 354.312 285.599L351.342 285.628C349.359 285.561 347.385 285.522 345.373 285.417C341.368 285.235 337.354 285.13 333.339 285.168C325.269 285.084 317.211 285.822 309.291 287.371C305.269 288.194 301.396 289.622 297.803 291.606C295.972 292.65 294.333 293.998 292.955 295.592C292.266 296.412 291.674 297.309 291.192 298.265C290.718 299.23 290.367 300.25 290.148 301.302C289.935 302.349 289.845 303.416 289.879 304.483C289.914 305.545 290.068 306.599 290.339 307.626C290.866 309.596 291.512 311.532 292.275 313.423C293.769 317.179 295.503 320.8 297.314 324.384Z" fill="black"/>
<path d="M362.14 301.159C336.961 301.159 325.234 303.918 316.955 302.884C308.687 301.849 309.607 305.183 309.607 305.183C309.607 314.841 337.497 351.632 337.497 351.632C332.761 357.065 327.352 361.871 321.401 365.937C317.435 358.991 313.477 352.035 309.674 345.002C305.841 337.989 302.086 330.927 298.636 323.732C296.921 320.13 295.273 316.498 293.817 312.819C293.095 310.996 292.484 309.13 291.987 307.233C291.757 306.321 291.628 305.386 291.604 304.445C291.576 303.513 291.659 302.58 291.853 301.667C292.59 297.978 295.408 295.075 298.732 293.187C302.171 291.33 305.869 290 309.703 289.24C317.485 287.664 325.408 286.88 333.349 286.902C337.335 286.845 341.32 286.921 345.306 287.075C347.289 287.151 349.32 287.199 351.333 287.228L354.36 287.132C355.376 287.113 356.382 286.988 357.388 286.921C361.428 286.588 365.419 285.807 369.288 284.593C371.22 283.979 373.103 283.22 374.922 282.322C376.738 281.412 378.469 280.341 380.095 279.122C383.341 276.703 386.033 273.619 387.993 270.077C389.952 266.535 391.134 262.615 391.459 258.58C398.51 259.203 404.92 259.069 409.395 257.584H409.404C414.243 298.86 387.319 301.159 362.14 301.159ZM354.024 200.428C353.47 201.541 352.947 202.674 352.364 203.777C351.75 204.861 351.187 205.978 350.517 207.031C349.237 209.18 347.841 211.257 346.337 213.255C344.808 215.243 343.168 217.142 341.425 218.945C339.677 220.777 337.773 222.455 335.736 223.959L335.613 224.047L335.429 224.067C327.477 224.964 319.518 225.801 311.552 226.577C309.56 226.778 307.564 226.925 305.564 227.08L302.558 227.287L301.035 227.359L300.195 227.352L299.478 227.313C295.526 227.215 291.505 227.171 287.513 227.118L275.515 227.001C274.531 227.004 273.478 226.957 272.548 226.995C271.594 227.131 270.656 227.369 269.751 227.703C267.885 228.369 266.046 229.146 264.211 229.935L261.454 231.123C260.991 231.318 260.527 231.51 260.049 231.69L259.678 231.817C259.57 231.862 259.342 231.886 259.236 231.916C259.068 232.004 258.908 232.104 258.757 232.218C257.234 233.488 255.809 234.871 254.493 236.355C253.143 237.819 251.823 239.321 250.609 240.886C250.307 241.266 250.027 241.664 249.772 242.077C249.523 242.458 249.386 242.921 249.563 243.109C249.706 243.345 250.201 243.465 250.649 243.492C251.12 243.522 251.593 243.5 252.059 243.426L252.34 243.381L252.466 243.68C252.663 244.048 252.945 244.362 253.29 244.597C253.635 244.832 254.032 244.98 254.446 245.027C255.349 245.162 256.27 245.12 257.157 244.901C258.992 244.494 260.731 243.74 262.282 242.679C263.07 242.16 263.814 241.564 264.615 240.985C265.43 240.348 266.349 239.855 267.331 239.529C268.365 239.236 269.456 239.209 270.502 239.45C271.471 239.674 272.425 239.952 273.363 240.282C277.019 241.541 280.658 242.719 284.4 242.839C286.248 242.885 288.092 242.659 289.873 242.166C291.638 241.637 293.313 240.847 294.844 239.822L295.136 239.638L295.454 239.674C304.037 240.649 312.649 241.443 321.249 242.257C329.849 243.049 338.469 243.737 347.072 244.044C349.221 244.117 351.372 244.164 353.503 244.102C354.568 244.074 355.629 244.016 356.666 243.903C357.642 243.841 358.597 243.589 359.476 243.16C361.195 242.014 362.698 240.572 363.915 238.902C365.234 237.219 366.466 235.47 367.606 233.661C369.913 230.035 371.981 226.243 373.973 222.414C375.972 218.587 377.864 214.702 379.65 210.761L379.827 210.834C376.705 218.931 372.977 226.781 368.676 234.318C367.576 236.21 366.37 238.038 365.065 239.795C363.764 241.653 362.137 243.261 360.263 244.539C360 244.689 359.71 244.813 359.433 244.948C359.149 245.054 358.859 245.147 358.565 245.224C358.008 245.361 357.443 245.468 356.874 245.543C355.764 245.686 354.664 245.768 353.569 245.82C351.378 245.927 349.201 245.923 347.026 245.893C342.677 245.845 338.348 245.565 334.023 245.285C329.699 244.992 325.38 244.651 321.067 244.263C312.437 243.504 303.841 242.501 295.24 241.461L295.85 241.314C292.458 243.594 288.413 244.701 284.334 244.464C280.4 244.095 276.547 243.123 272.909 241.584C271.097 240.936 269.326 240.212 267.658 240.689C265.986 241.134 264.529 242.518 262.844 243.546C261.165 244.631 259.293 245.385 257.329 245.767C256.327 245.984 255.292 246.001 254.284 245.818C253.736 245.736 253.218 245.516 252.778 245.18C252.338 244.844 251.99 244.401 251.767 243.895L252.173 244.148C251.65 244.218 251.12 244.234 250.593 244.198C250.291 244.205 249.991 244.146 249.714 244.025C249.437 243.904 249.189 243.724 248.989 243.498C248.886 243.348 248.822 243.175 248.801 242.995C248.797 242.831 248.81 242.668 248.838 242.507C248.917 242.234 249.034 241.974 249.186 241.734C249.46 241.298 249.759 240.879 250.082 240.479C251.336 238.896 252.674 237.403 254.049 235.941C255.413 234.454 256.863 233.048 258.391 231.732C258.487 231.649 258.615 231.577 258.725 231.5C258.87 231.4 259.034 231.331 259.207 231.299C259.34 231.259 259.366 231.266 259.493 231.222L259.83 231.102C260.285 230.924 260.742 230.728 261.199 230.528L263.936 229.307C265.765 228.493 267.602 227.688 269.495 226.985C270.457 226.6 271.457 226.318 272.478 226.144C273.543 226.067 274.493 226.086 275.508 226.05L287.508 225.784C291.515 225.717 295.495 225.597 299.54 225.695L300.322 225.73L300.981 225.725L302.454 225.642L305.431 225.407L311.397 224.877C319.362 224.202 327.324 223.432 335.286 222.691L334.98 222.799C336.985 221.404 338.867 219.84 340.606 218.124C342.373 216.403 344.041 214.584 345.603 212.675C347.144 210.748 348.667 208.793 350.013 206.713C351.395 204.656 352.637 202.509 353.853 200.342L354.024 200.428Z" fill="black"/>
<path d="M268.673 235.049L263.931 235.828C262.379 236.154 260.95 236.91 259.808 238.01L252.414 244.163L251.819 243.411L259.511 237.635C260.142 237.117 260.827 236.67 261.555 236.303C262.294 235.952 263.081 235.713 263.89 235.592L268.673 235.049ZM411.387 203.937C413.458 202.324 415.832 201.143 418.369 200.466C420.871 199.706 423.445 199.206 426.05 198.972C427.348 198.802 428.652 198.789 429.956 198.702C431.259 198.681 432.563 198.685 433.868 198.711C435.167 198.786 436.473 198.819 437.77 198.931L439.715 199.124L440.686 199.224L441.173 199.275C441.271 199.284 441.369 199.298 441.467 199.317L441.753 199.38C443.211 199.706 444.56 200.408 445.664 201.415C446.769 202.422 447.591 203.7 448.051 205.122C448.811 207.84 448.775 210.719 447.946 213.417C447.638 214.722 447.226 216.001 446.715 217.242L446.362 218.177L445.938 219.072L445.083 220.857C444.513 222.039 443.881 223.191 443.189 224.306L442.195 226C441.879 226.509 441.56 227.066 441.251 227.612C438.757 232.06 436.571 236.673 434.707 241.42C432.801 246.178 431.209 251.055 429.941 256.021C428.715 261.005 427.793 266.058 427.181 271.153C426.659 276.308 425.785 281.42 424.565 286.455C423.317 291.59 421.095 296.437 418.021 300.735C414.814 304.992 410.778 308.556 406.157 311.211C401.571 313.813 396.677 315.829 391.589 317.212C386.547 318.568 381.412 319.556 376.227 320.168C365.912 321.221 355.529 321.435 345.18 320.809C334.863 320.242 324.601 319.108 314.421 317.52L314.453 317.234C324.731 317.88 334.996 318.455 345.252 318.562L349.095 318.622L352.937 318.575L356.776 318.519L360.608 318.353C365.716 318.142 370.799 317.733 375.856 317.125C380.89 316.502 385.88 315.566 390.798 314.322C395.679 313.096 400.388 311.263 404.813 308.865C409.185 306.452 413.053 303.222 416.208 299.352C419.278 295.358 421.597 290.84 423.053 286.017C423.81 283.583 424.433 281.109 424.919 278.606C425.443 276.101 425.841 273.565 426.213 271.021C426.989 265.927 427.844 260.826 429.035 255.803C431.397 245.758 434.43 235.804 439.148 226.47C439.457 225.888 439.76 225.319 440.106 224.724L441.018 223.061C441.602 221.944 442.294 220.873 442.788 219.723L443.591 218.023L443.989 217.172L444.31 216.3L444.965 214.56C445.17 213.983 445.34 213.395 445.477 212.798C446.218 210.561 446.305 208.159 445.728 205.874C445.42 204.823 444.844 203.871 444.055 203.112C443.266 202.352 442.292 201.813 441.231 201.546L441.047 201.498C440.987 201.483 440.926 201.473 440.865 201.467L440.393 201.405L439.448 201.279L437.56 201.02C436.3 200.855 435.033 200.769 433.768 200.639C432.502 200.556 431.233 200.505 429.965 200.458C428.699 200.47 427.424 200.406 426.161 200.498C423.625 200.578 421.101 200.884 418.619 201.411C417.379 201.679 416.159 202.034 414.968 202.471C413.771 202.884 412.632 203.449 411.578 204.151L411.387 203.937Z" fill="black"/>
<path d="M311.812 312.163C320.756 312.87 329.706 313.275 338.662 313.376C347.612 313.482 356.545 313.194 365.46 312.512C369.914 312.168 374.357 311.657 378.761 310.896C383.173 310.175 387.515 309.069 391.735 307.591C395.955 306.137 399.943 304.078 403.573 301.48C407.169 298.893 410.023 295.407 411.85 291.371L411.822 291.446C413.534 285.065 415.135 278.637 416.479 272.177C417.154 268.948 417.764 265.706 418.226 262.456L418.531 260.019L418.752 257.583C418.897 255.889 419.148 254.204 419.503 252.541C419.804 250.868 420.321 249.267 420.758 247.639C421.299 246.052 421.767 244.432 422.407 242.886C423.573 239.743 424.968 236.708 426.387 233.69C429.321 227.708 432.6 221.9 436.205 216.296L436.18 216.338C436.984 214.824 437.591 213.214 437.987 211.546C438.408 209.89 438.484 208.165 438.211 206.479C437.917 204.795 437.069 203.257 435.801 202.11C434.465 200.985 432.905 200.156 431.225 199.677L431.274 199.492C433.045 199.852 434.714 200.604 436.156 201.694C437.607 202.863 438.627 204.483 439.055 206.297C439.433 208.102 439.434 209.965 439.06 211.77C438.716 213.569 438.141 215.316 437.349 216.967L437.348 216.971L437.324 217.009C433.946 222.674 430.869 228.513 428.105 234.502C426.758 237.504 425.407 240.508 424.309 243.597C424.009 244.361 423.743 245.135 423.491 245.913L422.716 248.239C422.293 249.81 421.785 251.368 421.498 252.961C421.158 254.537 420.902 256.13 420.731 257.734L420.466 260.246L420.116 262.735C419.596 266.04 418.93 269.305 418.201 272.552C416.714 279.04 414.966 285.451 412.958 291.786L412.944 291.833L412.93 291.861C410.879 295.972 407.8 299.484 403.992 302.055C400.267 304.622 396.213 306.674 391.938 308.153C383.416 311.116 374.582 313.092 365.609 314.043C356.648 314.985 347.629 315.265 338.627 314.88C329.638 314.576 320.675 313.733 311.787 312.353L311.812 312.163ZM366.401 378.996C363.684 377.051 361.1 374.959 358.565 372.813C356.021 370.676 353.558 368.451 351.117 366.2C348.699 363.926 346.307 361.622 344.007 359.22C341.639 356.868 339.464 354.331 337.501 351.632C339.975 353.857 342.561 355.932 345.039 358.138C347.542 360.312 349.985 362.552 352.423 364.8C354.834 367.075 357.24 369.357 359.574 371.718C361.917 374.069 364.219 376.465 366.401 378.996ZM319.163 367.335C321.382 369.377 323.195 371.82 324.505 374.535C325.21 375.96 325.614 377.514 325.692 379.101C325.625 380.675 325.316 382.228 324.776 383.708C323.771 386.518 322.557 389.248 321.144 391.877C319.77 394.507 318.219 397.041 316.502 399.461C317.535 396.674 318.665 393.953 319.791 391.241C320.889 388.522 322.038 385.823 322.961 383.096C323.455 381.812 323.765 380.465 323.883 379.095C323.872 377.728 323.615 376.374 323.126 375.098C322.073 372.382 320.745 369.781 319.163 367.335V367.335Z" fill="black"/>
<path d="M351.45 365.204C350.987 374.406 337.023 381.756 337.023 381.756C317.994 410.499 316.502 399.462 316.502 399.462C316.502 399.462 298.796 419.467 302.015 423.606C305.235 427.745 314.432 428.665 328.919 413.259C343.406 397.852 343.866 389.804 345.475 390.034C347.085 390.264 350.764 394.863 350.764 394.863L366.401 378.997C366.401 378.997 353.758 367.938 351.45 364.841" fill="black"/>
<path d="M357.546 319.764L351.802 319.952L356.4 460.033L362.144 459.844L357.546 319.764Z" fill="black"/>
<path d="M406.582 433.984L404.008 415.227C403.669 412.712 402.351 410.432 400.34 408.883L355.228 373.971L357.573 370.939L402.684 405.852C405.491 408.013 407.331 411.195 407.805 414.706L410.379 433.464L406.582 433.984Z" fill="black"/>
<path d="M387.712 448.081L386.285 421.171C386.186 419.295 385.544 417.489 384.436 415.972L354.917 375.528L358.012 373.27L387.531 413.713C389.078 415.829 389.975 418.35 390.112 420.968L391.539 447.879L387.712 448.081Z" fill="black"/>
<path d="M325.153 448.081L321.326 447.879L322.753 420.969C322.89 418.351 323.786 415.83 325.333 413.713L354.853 373.27L357.948 375.528L328.429 415.972C327.321 417.489 326.678 419.296 326.58 421.172L325.153 448.081ZM250.236 205.461C249.738 206.87 249.173 208.249 248.607 209.629L246.356 213.423L242.035 220.724H240.368L240.626 220.293L245.12 212.695L247.371 208.891C248.31 207.741 249.24 206.582 250.236 205.461ZM239.716 210.232L239.18 214.927L238.519 220.724H237.072L237.752 214.764L238.279 210.07C238.672 208.527 239.055 206.984 239.534 205.461C239.649 207.061 239.687 208.642 239.716 210.232ZM233.785 220.724H234.696L234.188 217.169L233.776 214.314L233.143 209.83C232.712 208.374 232.291 206.908 231.783 205.461C231.716 206.716 231.697 207.962 231.706 209.207V210.041L231.888 211.277L232.358 214.515L233.249 220.724L233.785 220.724ZM230.748 220.724H229.301L228.401 214.515L227.759 210.041C227.749 208.517 227.749 206.994 227.836 205.461C228.343 206.908 228.765 208.374 229.196 209.83L229.828 214.314L230.442 218.587L230.748 220.724Z" fill="black"/>
<path d="M231.888 210.434V211.277L231.879 214.841V220.724H230.442V210.434C230.652 208.968 230.863 207.502 231.16 206.026C231.371 207.09 231.553 208.153 231.706 209.207C231.773 209.619 231.831 210.022 231.888 210.434ZM236.315 211.171L235.817 215.55L235.232 220.724H233.785L234.188 217.169L234.389 215.387L234.878 211.009C235.251 209.571 235.625 208.134 236.085 206.716C236.219 208.201 236.267 209.686 236.315 211.171Z" fill="black"/>
<path d="M226.312 226.588V231.762C226.561 231.733 226.81 231.714 227.059 231.685L229.215 226.847C228.247 226.78 227.28 226.703 226.312 226.588ZM229.483 226.933L227.174 231.676C228.564 231.532 229.962 231.436 231.352 231.379L229.483 226.933ZM229.79 226.885L231.764 231.139L233.335 227.029C232.157 227.01 230.969 226.952 229.79 226.885L229.79 226.885ZM233.833 227.441L232.214 231.35C233.239 231.312 234.255 231.292 235.28 231.283L233.833 227.441ZM235.874 227.067C235.376 227.058 234.868 227.048 234.37 227.048L235.836 230.66L237.081 227.048C236.679 227.058 236.277 227.058 235.874 227.067V227.067ZM237.723 227.977L236.468 231.283C237.273 231.292 238.078 231.302 238.883 231.331C238.48 230.21 238.097 229.099 237.723 227.977L237.723 227.977ZM238.394 227.029C238.806 228.169 239.199 229.309 239.582 230.449C240.099 229.271 240.607 228.102 241.134 226.933C240.224 226.981 239.314 227.01 238.394 227.029L238.394 227.029ZM241.671 227.47C241.192 228.773 240.694 230.066 240.195 231.369C241.297 231.407 242.399 231.475 243.491 231.57C242.859 230.21 242.265 228.849 241.671 227.47V227.47ZM226.312 220.725V226.588C229.487 226.242 232.68 226.082 235.874 226.109C236.459 226.109 237.043 226.119 237.627 226.128C237.712 226.104 237.802 226.104 237.886 226.128C239.113 226.148 240.329 226.195 241.546 226.262C241.577 226.252 241.609 226.245 241.642 226.243C241.691 226.244 241.74 226.253 241.786 226.272C243.003 226.349 244.219 226.445 245.436 226.588V220.725L226.312 220.725ZM228.544 225.007C228.172 224.995 227.819 224.838 227.559 224.57C227.3 224.302 227.155 223.943 227.155 223.57C227.155 223.197 227.3 222.839 227.559 222.571C227.819 222.303 228.172 222.146 228.544 222.133C228.917 222.146 229.27 222.303 229.529 222.571C229.789 222.839 229.934 223.197 229.934 223.57C229.934 223.943 229.789 224.301 229.529 224.57C229.27 224.838 228.917 224.995 228.544 225.007V225.007ZM233.718 225.007C233.346 224.995 232.992 224.838 232.733 224.57C232.474 224.302 232.329 223.943 232.329 223.57C232.329 223.197 232.474 222.839 232.733 222.571C232.992 222.303 233.346 222.146 233.718 222.133C234.091 222.146 234.444 222.303 234.703 222.571C234.962 222.839 235.107 223.197 235.107 223.57C235.107 223.943 234.962 224.301 234.703 224.57C234.444 224.838 234.091 224.995 233.718 225.007V225.007ZM238.72 224.835C238.347 224.822 237.994 224.665 237.735 224.397C237.475 224.129 237.33 223.771 237.33 223.398C237.33 223.025 237.475 222.667 237.735 222.398C237.994 222.13 238.347 221.973 238.72 221.961C239.093 221.973 239.446 222.13 239.705 222.398C239.964 222.667 240.109 223.025 240.109 223.398C240.109 223.771 239.964 224.129 239.705 224.397C239.446 224.665 239.093 224.822 238.72 224.835V224.835ZM243.635 225.007C243.262 224.995 242.909 224.838 242.65 224.57C242.391 224.302 242.246 223.943 242.246 223.57C242.246 223.197 242.391 222.839 242.65 222.571C242.909 222.303 243.262 222.146 243.635 222.133C244.007 222.146 244.361 222.303 244.62 222.571C244.879 222.839 245.024 223.197 245.024 223.57C245.024 223.943 244.879 224.301 244.62 224.57C244.361 224.838 244.008 224.995 243.635 225.007H243.635ZM242.092 226.876C242.629 228.437 243.146 229.999 243.625 231.58C244.229 231.637 244.832 231.685 245.436 231.762V226.588C244.325 226.713 243.213 226.809 242.092 226.876H242.092ZM229.483 226.933L227.174 231.676C228.564 231.532 229.962 231.436 231.352 231.379L229.483 226.933ZM229.79 226.885L231.764 231.139L233.335 227.029C232.157 227.01 230.969 226.952 229.79 226.885L229.79 226.885ZM233.833 227.441L232.214 231.35C233.239 231.312 234.255 231.292 235.28 231.283L233.833 227.441ZM235.874 227.067C235.376 227.058 234.868 227.048 234.37 227.048L235.836 230.66L237.081 227.048C236.679 227.058 236.277 227.058 235.874 227.067L235.874 227.067ZM237.723 227.977L236.468 231.283C237.273 231.292 238.078 231.302 238.883 231.331C238.48 230.21 238.097 229.099 237.723 227.977L237.723 227.977ZM238.394 227.029C238.806 228.169 239.199 229.309 239.582 230.449C240.099 229.271 240.607 228.102 241.134 226.933C240.224 226.981 239.314 227.01 238.394 227.029L238.394 227.029ZM241.671 227.47C241.192 228.773 240.694 230.066 240.195 231.369C241.297 231.408 242.399 231.475 243.491 231.57C242.859 230.21 242.265 228.849 241.671 227.47L241.671 227.47ZM229.483 226.933L227.174 231.676C228.564 231.532 229.962 231.436 231.352 231.379L229.483 226.933ZM229.79 226.885L231.764 231.139L233.335 227.029C232.157 227.01 230.969 226.952 229.79 226.885L229.79 226.885ZM233.833 227.441L232.214 231.35C233.239 231.312 234.255 231.292 235.28 231.283L233.833 227.441ZM235.874 227.067C235.376 227.058 234.868 227.048 234.37 227.048L235.836 230.66L237.081 227.048C236.679 227.058 236.277 227.058 235.874 227.067L235.874 227.067ZM237.723 227.977L236.468 231.283C237.273 231.292 238.078 231.302 238.883 231.331C238.48 230.21 238.097 229.099 237.723 227.977L237.723 227.977ZM238.394 227.029C238.806 228.169 239.199 229.309 239.582 230.449C240.099 229.271 240.607 228.102 241.134 226.933C240.224 226.981 239.314 227.01 238.394 227.029L238.394 227.029ZM241.671 227.47C241.192 228.773 240.694 230.066 240.195 231.369C241.297 231.407 242.399 231.475 243.491 231.57C242.859 230.21 242.265 228.849 241.671 227.47L241.671 227.47ZM226.312 237.367V238.555C226.312 241.091 227.319 243.523 229.113 245.316C230.906 247.11 233.338 248.117 235.874 248.117C238.41 248.117 240.842 247.11 242.635 245.316C244.429 243.523 245.436 241.091 245.436 238.555V237.367C239.077 238.006 232.671 238.006 226.312 237.367ZM239.783 232.165C239.722 232.206 239.652 232.231 239.578 232.24C239.505 232.248 239.431 232.239 239.362 232.213C239.342 232.201 239.323 232.188 239.304 232.174C238.164 232.213 237.014 232.232 235.874 232.241C232.68 232.259 229.488 232.099 226.312 231.762V237.367C232.671 236.728 239.077 236.728 245.436 237.367V231.762C243.549 231.983 241.671 232.097 239.783 232.165V232.165ZM228.976 236.045C228.603 236.032 228.25 235.875 227.99 235.607C227.731 235.339 227.586 234.981 227.586 234.608C227.586 234.235 227.731 233.876 227.99 233.608C228.25 233.34 228.603 233.183 228.976 233.171C229.348 233.183 229.702 233.34 229.961 233.608C230.22 233.876 230.365 234.235 230.365 234.608C230.365 234.981 230.22 235.339 229.961 235.607C229.702 235.875 229.348 236.032 228.976 236.045V236.045ZM233.373 235.959C233.001 235.946 232.647 235.789 232.388 235.521C232.129 235.253 231.984 234.894 231.984 234.521C231.984 234.148 232.129 233.79 232.388 233.522C232.647 233.254 233.001 233.097 233.373 233.084C233.746 233.097 234.099 233.254 234.359 233.522C234.618 233.79 234.763 234.148 234.763 234.521C234.763 234.894 234.618 235.253 234.359 235.521C234.099 235.789 233.746 235.946 233.373 235.959H233.373ZM238.202 235.959C237.83 235.946 237.476 235.789 237.217 235.521C236.958 235.253 236.813 234.894 236.813 234.521C236.813 234.148 236.958 233.79 237.217 233.522C237.476 233.254 237.83 233.097 238.202 233.084C238.575 233.097 238.928 233.254 239.188 233.522C239.447 233.79 239.592 234.148 239.592 234.521C239.592 234.894 239.447 235.253 239.188 235.521C238.928 235.789 238.575 235.946 238.202 235.959V235.959ZM243.031 235.786C242.659 235.774 242.305 235.617 242.046 235.348C241.787 235.08 241.642 234.722 241.642 234.349C241.642 233.976 241.787 233.618 242.046 233.35C242.305 233.081 242.659 232.924 243.031 232.912C243.404 232.924 243.757 233.081 244.016 233.35C244.276 233.618 244.421 233.976 244.421 234.349C244.421 234.722 244.276 235.08 244.017 235.348C243.757 235.617 243.404 235.774 243.031 235.786V235.786ZM243.491 231.57C242.859 230.21 242.265 228.849 241.671 227.47C241.192 228.773 240.694 230.066 240.195 231.369C241.297 231.408 242.399 231.475 243.491 231.57V231.57ZM241.134 226.933C240.224 226.981 239.314 227.01 238.394 227.029C238.806 228.169 239.199 229.309 239.582 230.449C240.099 229.271 240.607 228.102 241.134 226.933V226.933ZM238.883 231.331C238.48 230.21 238.097 229.099 237.723 227.977L236.468 231.283C237.273 231.292 238.078 231.302 238.883 231.331V231.331ZM237.081 227.048C236.679 227.058 236.277 227.058 235.874 227.067C235.376 227.058 234.868 227.048 234.37 227.048L235.836 230.66L237.081 227.048ZM235.28 231.283L233.833 227.441L232.214 231.35C233.239 231.312 234.255 231.292 235.28 231.283L235.28 231.283ZM233.335 227.029C232.157 227.01 230.969 226.952 229.79 226.885L231.764 231.139L233.335 227.029ZM229.483 226.933L227.174 231.676C228.564 231.532 229.962 231.436 231.352 231.379L229.483 226.933ZM241.671 227.47C241.192 228.773 240.694 230.066 240.195 231.369C241.297 231.408 242.399 231.475 243.491 231.57C242.859 230.21 242.265 228.849 241.671 227.47V227.47ZM238.394 227.029C238.806 228.169 239.199 229.309 239.582 230.449C240.099 229.271 240.607 228.102 241.134 226.933C240.224 226.981 239.314 227.01 238.394 227.029L238.394 227.029ZM237.723 227.977L236.468 231.283C237.273 231.292 238.078 231.302 238.883 231.331C238.48 230.21 238.097 229.099 237.723 227.977V227.977ZM235.874 227.067C235.376 227.058 234.868 227.048 234.37 227.048L235.836 230.66L237.082 227.048C236.679 227.058 236.277 227.058 235.874 227.067V227.067ZM233.833 227.441L232.214 231.35C233.239 231.312 234.255 231.292 235.28 231.283L233.833 227.441ZM229.79 226.885L231.764 231.139L233.335 227.029C232.157 227.01 230.969 226.952 229.79 226.885V226.885ZM229.483 226.933L227.174 231.676C228.564 231.532 229.962 231.436 231.352 231.379L229.483 226.933ZM241.671 227.47C241.192 228.773 240.694 230.066 240.195 231.369C241.297 231.408 242.399 231.475 243.491 231.57C242.859 230.21 242.265 228.849 241.671 227.47V227.47ZM238.394 227.029C238.806 228.169 239.199 229.309 239.582 230.449C240.099 229.271 240.607 228.102 241.134 226.933C240.224 226.981 239.314 227.01 238.394 227.029L238.394 227.029ZM237.723 227.977L236.468 231.283C237.273 231.292 238.078 231.302 238.883 231.331C238.48 230.21 238.097 229.099 237.723 227.977V227.977ZM235.874 227.067C235.376 227.058 234.868 227.048 234.37 227.048L235.836 230.66L237.082 227.048C236.679 227.058 236.277 227.058 235.874 227.067V227.067ZM233.833 227.441L232.214 231.35C233.239 231.312 234.255 231.292 235.28 231.283L233.833 227.441ZM229.79 226.885L231.764 231.139L233.335 227.029C232.157 227.01 230.969 226.952 229.79 226.885V226.885ZM229.483 226.933L227.174 231.676C228.564 231.532 229.962 231.436 231.352 231.379L229.483 226.933ZM324.679 377.696C325.794 377.677 326.907 377.778 328 377.998C329.067 378.203 330.119 378.476 331.151 378.816C332.183 379.153 333.193 379.557 334.173 380.025C335.183 380.497 336.139 381.077 337.023 381.756C335.908 381.778 334.795 381.677 333.702 381.457C332.635 381.252 331.583 380.978 330.552 380.636C329.52 380.297 328.511 379.892 327.531 379.424C326.521 378.952 325.565 378.373 324.679 377.696V377.696Z" fill="black"/>
</svg>
